<mxfile host="app.diagrams.net" modified="2022-11-23T15:16:23.239Z" agent="5.0 (Windows NT 10.0; Win64; x64) AppleWebKit/537.36 (KHTML, like Gecko) Chrome/107.0.0.0 Safari/537.36" etag="YpDzvzgwYL1CpDHyrhMK" version="20.5.1" type="github">
  <diagram id="LXAWVVhdpo5Nvk_XFe12" name="Page-1">
    <mxGraphModel dx="965" dy="540" grid="1" gridSize="10" guides="1" tooltips="1" connect="1" arrows="1" fold="1" page="1" pageScale="1" pageWidth="1169" pageHeight="827" math="0" shadow="0">
      <root>
        <mxCell id="0" />
        <mxCell id="1" parent="0" />
        <mxCell id="gofoVs9rAWzTl6_hGibi-4" value="" style="shape=image;verticalLabelPosition=bottom;labelBackgroundColor=default;verticalAlign=top;aspect=fixed;imageAspect=0;image=data:image/png,iVBORw0KGgoAAAANSUhEUgAAA4UAAAKhCAYAAADnmgs0AAAgAElEQVR4nOzdeXhU5dnH8W8ICQFCYBJICDsMCUvYDVoBd427oFXR1L3WWqh1qV20pkjRaqulWCv6WquICuLaVMUaFVEDKERAISxZ2ANkHbawJZD3j+PETM6ZZCaZJcn8PteVS+Y+zznnRmMm9zzPuZ+wmpqaGr6Xl5cHQHJyMiIiIiIiItJ2Oeu/dkHOQ0RERERERIJIRaGIiIiIiEgIU1EoIiIiIiISwlQUioiIiIiIhDAVhSIiIiIiIiFMRaGIiIiIiEgIU1EoIiIiIiISwlQUioiIiIiIhDAVhSIiIiIiIiFMRaGIiIiIiEgIax/sBFqT2bNnk5OT4xKbNm0akyZNMo2dN28eWVlZLrGZM2eSlJTUpHHueHN+c+8lIiIiIiJtT1hNTU2N80VeXh4AycnJQUuopcrIyKCwsNCliHIWiVOnTmXy5Mm1Y53xugVjQ+c3Ns4db85v7r1ERERERKRtcdZ/Wj7qgfz8fAoLC0lLS3Mpnu677z4Al9nD7OxscnJySEtLc5lBvOmmmwCYP3++V+Pc8eb85t5LRERERETaLhWFHiguLgagoqKi0bEFBQUATJw40SWelJSE3W6nsLDQq3HNvY8v7iUiIiIiIm2XikIPTJo0CZvNRk5ODtnZ2bXx2bNnA3DhhRfWxpwFltVyTJvNBvww8+jJOHe8Ob+59xIRERERkbZLRaGH7rnnHgDmzp1LRkYG6enptc8T1l2S6clsYnFxscfj3PHm/ObeS0RERERE2i51H/VQUlISCxYsID09vXbmzW63uzSYkR84H1oVEREREWmL2lJzTs0Uemj27Nmkp6djt9tZsGABaWlpFBYWkp6e7rKkVCAsLIwhQ4YEOw0REREREfGAZgo9kJmZWdu985ZbbgHglltuYeLEicyYMYO5c+fWLiGNjY3F4XA0eL2EhASPx7njzfnNvVdTtaVPT0RERERE2irNFHrAueWEVffO1NRU4IdGLQ01bnE4HNhsNpKSkjwe54435zf3XiIiIiIi0napKGym+jNwdrsdgGXLlrnEnR1Hncc9HeeON+c3914iIiIiItJ2qSj0gHPLiTlz5rjEMzMzKSwsJDU1tXambfLkydjtdrKyslxm5pznOje893ScU3p6Ounp6bVjvTnf23uJiIiIiEjoCKupqalxvnB2jNSzYNbS09NNsalTp1p2IM3IyHDZFN5utzNr1qwmj3Pee+bMmS5LPT0939uxzREWFgZAnW8tERERERFpYZz1n4pC8TkVhSIiIiIiLZ+z/tPyURERERERkRCmolBERERERCSEqSgUEREREREJYSoKRUREREREQpiKQhERERERkRCmolBERERERCSEqSgUEREREREJYe1zc3NrX0RERAQxFREREREREQm09ikpKbUvnJsXioiIiIiISGjQ8lEREREREZEQpqJQREREREQkhKkoFBERERERCWEqCkVEREREREKYikIREREREZEQpqJQREREREQkhKkoFBERERERCWEqCkVEREREREKYikIREREREZEQpqJQREREREQkhKkoFBERERERCWEqCkVEREREREKYikIREREREZEQpqJQREREREQkhLUPdgIiIiLygw0bNlBSUhLsNIIiPj6e4cOHBzsNEZGQo5lCERGRFiRUC0II7b+7iEgwaaZQRESkBTr77LODnUJALV26NNgpiIiELM0UioiIiIiIhDAVhSIiIiIiIiFMRaGIiIiIiEgIU1EoIiLSQmzZsiXYKYiISAhSoxkREZEWYNOmTezduxeA5OTkIGcjIiKhREWhiIhIEFVVVbFx40YqKipo164dw4cPp3v37sFOS0REQoiKQhERkSCprKxkw4YNVFZW0rFjR4YNG0ZMTEyw0xIRkRCjolBERCQIHA4Hubm5VFdX07VrV1JSUoiMjAx2WiIiEoJUFIqIiATYnj172Lx5MwDx8fEMHz7c62vMmzePrKwsl9jUqVOZPHlyo+MaGm9l+vTpOBwOl9iCBQsaPCc7O5u5c+cCkJaWxi233NLofUREJDhUFIqIiATQ9u3b2bp1KwB9+/bFbrd7fY3MzExWrVrlUpjNnj2bRYsW4XA4XAqwiooKAGbOnElSUpLX98rIyGD8+PEu10xPTyc9Pb3Bay5cuNDre4mISHBoSwoREZEAycvLqy0I7Xa7ZUFYWVnJ0aNHG7zO5MmTeeaZZ1xi9913HwCrVq3yUbaGWbNmmWb5pk6dCsCyZcssz8nMzMThcNSOExGRlk0zhSIiIv5y6DvY/zknwzqTWz6e8vJyAIYNG0ZCQgLHjx/nwIEDHDx4kIMHD3LgwAGqq6vp0KEDp59+ute3s9lspmWewbBo0SJSU1OJi4sLdioiIuIBFYUiIiK+dvII5F4JFR9xuKY3G8ngIOVERESQkJBAeXk5W7dutZwRDAsL49ixY02+tc1ma07mHiksLARg8ODBpmOzZ88GjJnL7Oxsv+ciIiLNp6JQRETEl2qqYN0lsG8p+xjNdzzOSaIAY0/CXbt21Q4NDw8nJiaGmJgYoqOjiYmJYcWKFU26bXZ2Ng6Hg9TUVMvjM2bMcHk9bdo0Jk2a5PV9MjMzycnJITU11XR+fn4+OTk5pKWleX1dEREJHhWFIiIivrTlAdi3FIDdNZfXFoQA0RQSE7aJLjFxdEn6JdHR0T67rbOxy+WXX+4Sdz5rWFdGRgZz586loKDAo66gGRkZtbODAKmpqZbXnT9/PjabTZ1GRURamfa5ubm1LyIiIoKYioiISCt3aA3s+lvty/68QnTYFmLYRBc2Es4R48ABYH8niP6VT247e/ZsHA4HaWlpHnUYnTVrFtOnTycrK8ujAm7WrFkur6dPn056errLlhaZmZkUFhYybdq0pv0lREQkaNqlpKTg/BIREZFm2O3aEbRz2Hb6hS2kW/imHwpCp4K74UghzTVv3rza5ZzezNDFxsYCxpJPbz3zzDPYbDYWLVpUG8vKysJutzdpSaqIiASXlo+KiIj4wrEi2PNvc3zgXyCyJ2y6yXxs+0wYOr/Jt8zMzKwtxqyWc/pTbGwsDoejtqh0OBw4HA7S09NNY7OyssjKynKZWRQRkZZDRaGIiIgvFL9qjkUmQN/7gTA4tBZ2za53zivQ82bodp7Xt8vOzmbRokXYbDbT8k5PFBYWYrfbm7ShPUBFRQVA7fkLFiywzHHu3LmkpaXpOUMRkRZMm9eLiIj4Qslr5ljiz4Ew488DH4UOvcxjdjzm9a3y8/OZO3cugGkT+7qys7MtZ+6mT58OwE033WSKp6en124lkZ+f7/LayfkMozanFxFpGzRTKCIi0lyH1kDlOnM8/ic//LldFPSfAXk/dx3j+BQqPoDYSz2+3XvvvVf7Z6uiz9kddNKkSXz00UemMXa7vcFi0ikpKYm0tDTmzp1bW4Q6zZw5s8mzjCIi0rKE1dTU1Dhf5OXlAZCcnBy0hKT1CwszPhWv860lItK2bZ8J2x52jXU7F0Z/ah67+jQ4uLLe2HNg9BIAli41trM4++yz/ZFpixWqf28RkWBy1n9aPioiItJcZf81x+KusB7bx6IhzL7PoPx93+YkIiLiIS0f9cDs2bPJyclpcEz9B+znzZtHVlaWS8xqqY2n49zx5vzm3ktERCwc3gSHVpvj3d0UhfFTYdff4eDXrvGiORB3me/zExERaYSKQg+4a/Odn5/PjBkzsNvtLnFnETlt2rTa/ZoyMjKYMWOGSxHm6Th3vDm/ufcSERE3yjLNsZjTIWqg+3P63Acb6zVpcXwKFf8DonyanoiISGO0fLQZli1bBhgP9DtlZ2eTk5NDWlqaywa+zg5v8+fP92qcO96c39x7iYhIAyo+NMe6N7IXX/y10GW8OV40xzc5iYiIeEFFYTNkZWVhs9lcNuItKCgAYOLEiS5jk5KSsNvtFBYWejXOHW/Ob+69RETEjep9sP9zczzWg2Wgfe41xyo+an5OIiIiXlJR2ESZmcZyofHjXT/pdRZYVssxbTYbYCw79XScO96c39x7iYiIG44sc6xjEnROafzc+OsheqzvcxIREfGSisImcjZsqT/7VlFR0ei5xcXFHo9zx5vzm3svERFxo8KiKLSleX5+39/4LhcREZEmUqOZJsjOzsbhcJCamqoGLQ1w7nsiItJWDSpdbHoj3X1kBIc8/vl3Cn0jT6Hj8W98nVqrpfcOEWkt2tLe7ioKm+Cjj4xnPk499dQgZyIiIsESVZVL+xN76kXbUdlhouV4dyo6/4zeFkWhczN3ERERf1NR6CXn84B2u92lk6dTbGwsDoejwWskJCR4PM4db85v7r2aqi19eiIiYrLjHSirF4tNI2nISC8vlAwblkDpGwDE8wklnO+TFFub+Ph4vXeIiASBikIvvffee4DrNhR11W3cUn9pqcPhwGazkZSU5PE4d7w5v7n3EhERC46PzTHbBU271qAnoGIxnDjE8LBHGc6jPxwb9SHYLmradUVERDygRjNeysnJMW1DUZdzI3vnHoZOdWcYvRnnjjfnN/deIiJSz4lDsG+JOd7UojCqHwz6q/WxDT+Byg1Nu66IiIgHVBR6Yd68eYB5G4q6Jk+ejN1uJysry2WbhzlzjA2J77vvPq/GOaWnp5Oenl471pvzvb2XiIg0wmqWsOMg6Ozt0tE6ev0CEu8wx6srYNMNcOJA068tIiLSgLCampoa5wtnxy+t57c2ffp0HA4HM2fObHS5ZUZGhsum8Ha7nVmzZjV5XHp6OoDp3p6e7+3Y5ggLCwOgzreWiEjbkj8Ndj/rGku8A5L/r/nX/u4icFhsYt/tfBhtUYyKiIg0kbP+U1EoPqeiUETavJXJcCTfNTb8TehxdfOvXVUGa8+EwxvNx3r8GIa/1fx7iIiI8EP9p+WjIiIi3ji01lwQQtOfJ6wvojsMexXCO5mPlb4Nm3/qm/uIiIh8T0WhiIiINyoWm2O286F9V9/dI3ocDHvD+tjeF2HLb313LxERCXkqCkVERLxhVRTGXuL7+8RdCkNfsz628wnY/U/f31NEREKSikIRERFPHd8N+5eZ4/4oCgES0iHpWetj+XdBWaZ/7isiIiFFRaGIiIinrGYJO4+CTkP8d89ed8Kgx62PbboBDq3x371FRCQkqCgUEZHQUvQUFPwK1k+GnNGwazacPObZuaXvmGP+miWsq+/voNd0c/zEIdh4I5w87v8cRESkzVJRKCIioaH6IGy4BgrugaKnofy/UPkdFP4avko0Yg05vgcqPjTH4y71T771Jf0T4i43xw/nQsG0wOQgIiJtkopCERFp+47thDU/glI3e/xVOYzZw8L73V+jeIE51jEZuk7yTY6eGPoaRI8xx/f8G/a8ELg8RESkTVFRKCIibd/mn8HhDY2P2/U32Hyr9bHil80xX2xW7432XWDATGgXaT625bdQVRLYfEREpE1QUSgiIm3b1t+D4yPPx++dB5tvdo2VvQOV68xjE37SvNyaIu4KSJprjlc7YMvvAp+PiIi0eioKRUSk7dq3BHb8xRyPTITk56DP3dbn7Z0P66fAyaPGa6vZQ9uF0Gm473L1Rs+fQk+LnPbOg/IPAp+PiIi0au2DnYCIiIjfbPmDdXzofLCdb/y5Qz+j2Ux95ZmQMwIi4qH6gPl47yA3dxn4F6NZTlW5a3znY4FrfiMiIm1C+9zc3NoXERERQUxFRETEh3bOhoNfmeODnvihIATocx+ERULBXeaxRwqNr/q6nmks4wymyB5GYZh3u2t8/zIofgUSbgxOXiIi0uqE1dTU1Dhf5OXlAZCcnBy0hKT1CwsLA6DOt5aISGBVO+DrgVC93zXe9QwY84X1OXv+BXl3eHb9scsh5vTm5egra8+C/fX+Tp2GwviNwclHRERaDWf9p2cKRUSk7dn+iLkgBBjwiPtzEn8GKW9Du0ZWzQx8rOUUhAD9HjDHDm+CvRbdUkVERCyoKBQRkZZl36fWSzY9dXgj7Jptjve6E7qd2fC53a+C8fnQ8xbzsfZxkPQs9Pt903Pzh9iLoPsUc3z3PwOfi4iItEpqNCMiIi3D9j/Bzr/CiUrjdYc+xoyc/UmjGYzH17GYDQyLgH4PeXZ+VH8Y8hL0mg5VZXDyEFQfhPifWO8P2BL0vhvK/uMaO5gDZe9C9yuDk5OIiLQaKgpFRCT4NkyF0jdcY8d2QembsG8pJD9vPRtW374lULLAHO//EHTo7V1OXVK9Gx9M3c4G2wXg+Ng1vvtZFYUiItIoLR8VEZHg2vU3c0FYV1Up5F4Je19q/FpWs4Qd+kI/N1tTtCW9f2mOOT42ZgxFREQaoKJQRESCZ/8XUHi/Z2M33wYlr7s/vvs52PeZOd7vIQgLb1p+rUncFdBlnDm+54XA5yIiIq2KikIREQmerW5m8MI6WMc3Xg8VH5njVaWw9UFzPOY06OXhNhNtQc/bzbG9L0BVReBzERGRVkNFoYiIBEf5+7A/2xzvPwMmlkH8VOvzNlwLxa+6xgruNvYmtLpWKEm8HcK7usZqThiFoYiIiBsqCkVEJDiKnjLHup0FAx6G8GgY9jrEWTSXOXEACu+FA8uN1zsehZKF5nGJt0Psxb7NuaULizD+3vVpCamIiDRARaGIiASe4xPjq77ev3J9PeJdsJ1nHldVBmvOhK8HwFaLrSba22Dgn32Ta2tjVRQeyYeytwOfi4iItAoqCkVEJPD2vmyOdTnV2Dy+vmGLoPMoi4ucgKPbra+f9CxE9GhWiq1Wp6HW21BotlBERNxQUSgiIoFV7YCSV83xPndbj4+Ig5R3oPMIz64/YIb75xFDhdVsYcX/4NDqwOciIiItnopCEREJrPpNYgAie0J8uvtzOtph1EfQZXzD1+41Dfo/3Lz82oLYSyB6tDm++/nA5yIiIi2eikIREQms4lfMsYQbGj8vsheMWwkDH4F2Ua7HwqNh2CuQ9IxvcmwLev7MHNv7L6gqD3wuIiLSorUPdgIiIhJCDn4DB1eZ4/EeFIVO/f4APW+DA18ZxWB4F2MmMVSfIXSn1x2w7SGo3vdDrOYk7Hke+j0QvLxERKTF0UyhiIgETulb5li3s6yXOjYkMtFopmK7AGJ+pILQSlgEJFrMFu75V+BzERGRFk1FoYiIBI7Vtgg9rgl8HqEi8Q5z7OhW630dRUQkZKkoFBGRwNj/pbFfXn09rg58LqGi42Doca05vkcNZ0RE5AcqCkVEJDCslo7GXgIRCYHPJZT0spgt3LcU9n8R+FxERKRFUlEoIiKBUfaOOaZZQv/rdh7EnGaO7/p74HMREZEWSUWhiIj4375P4dguc1xFYWBYPVtY9h84sDzwuYiISIujolBERPyv7F1zrPuVxnYS4n89b4NOQ83xnZotFBERFYUiIhIIpRZLR7tfFfg8Qlmfe82xsreg/P3A5yIiIi2KikIREfGviiw4vsc1FhZuzBRK4CTeYXQjrW/bw4HPRUREWhQVhSIi4l9WexN2vxLCOwc+l1DXP8McO/QNbH8k8LmIiEiLoaJQRET8q8xiKwotHQ2OhJvAdr45vi0DHB8FPh8REWkRVBSKiIj/lL0LVRWusXYd1XU0mAa4WS6adydUlQc2FxERaRFUFIqIiP9YbVjf42oIiwh8LmKImQj9/2iOH91mFIYiIhJyVBSKiIh/nKx0XxRKcA2YCbGXmONlb6nxjIhICFJRKCIi/rF3PtQcd41F9IC4K4KTj7hKfs7471Hf9plqPCMiEmJUFIqIiH8Uv2KOxV8f+DzEWoe+kPSc9bFtGbDz8cDmIyIiQaOiUEREfO/ASjiwwhzveVPgcxH3elwF/R6wPrblAdj+aGDzERGRoGifm5tb+yIiQg/+i4iIDxS/bI7FTIToUwKfizRs4J/h5HHY9TfzsW0PweFcGPJvo2usiIi0Se1TUlJqX+Tl5QUxFRERaROObIXdc83xhBsDn4t4xv4k1FRD0VPmYyULofL7wrBLauBzExERv2sf7ARam3nz5pGVleUSS01N5b777mt03MyZM0lKSmrSOG/ycXd+c+8lIuKRojnmWPtuKgpbusFzgBNQ9E/zscrvYPV46D/D/T6HIiLSaoXV1NTUOF84ZwqTk5ODllBLNn36dBwOR6OF1OzZs8nJyWHatGlMmjQJgIyMDAoLC13O9XRcc+/ji3t5IywsDIA631oiEiqO5MNKi/eQ/g/DgBmBz0e8ty2j4e6j0WNh0F/AdkHgchIREb9w1n9qNOOh2bNne1QQZmdnk5OTQ1paWm3xBXDTTUZzhfnz53s1rrn38cW9REQ8tuU35lh4NPS5N/C5SNMMmAXDFkJ4J+vjh9bAd2mw9kwovB92/AV2zYE9z0HpG7Dvczi8Car3BTZvERFpMi0f9VBOTg6pqamNzqgVFBQAMHHiRJd4UlISdrudwsJCr8Y19z6+uJeIiEf2/AvKMs3xPvdC+5jA5yNNF38ddB4Bm2+Dg6usx+z/0vhqiO186HENJN7h+xxFRMRnNFPogezsbADsdnujY50FllXxaLPZAMjPz/d4XHPv4+1YEZEmObgK8n5ujne0Q/+MwOcjzdd5BIxb2bz/fo5PjO+L1afB/i98l5uIiPiUZgo9UF5eDkBcXBzp6ekux+o3mamoqGj0esXFxR6Pczcz6c35zb2XiEiDqspg062AxXPEg56AMG131KoN+BPEXQFbfgf7ljTtGgdXwtqzIPl5SPyZb/MTEZFmU1HoAYfDAcDcuXNZsGBBbTwzM5NFixaRkZHBrFmzgpVei6XZR5G2r/3JEhLL7ySqKtd07EDnayh2jACHfha0fl2h03NEhy2m2+HX6Xjsq6ZdJu8OiktKOdDpGt+mJyISBG1pQkVFoRemTp3q8nry5Mnk5ORQWFhIfn5+m/rG8AV1HxVp2yJO7KKXYxodqjabjh2NGMXemFmgnwNtysGoizkYdTERJ3YSVbWeyOothNUcq/0KP7mf8JMVhJ+soEO19d7HCfv+QHW7eCo7nBng7EVExB0VhR5wPnfX0DHn8svY2NjamUV3EhISPB7njjfnN/deTaUiWaQNO7SWsE3TwKIgJLwLHUYvIKmTtjdqu5KAcxscUVOykLC9/7Zcctq7ciY1Q1ZBhO/fe0RExHsqCj0QFxcH0GBh5Syq6jZuqV8UORwObDYbSUlJHo9zx5vzm3uvpnLuVygibUzxfNh8O9RUmY+Fd4ERmYR1Tgl8XtKyJKQbX5tugOLXXI8d20VY3s9hhEW3WhERCTh1H/WAc28/q60bCgsLXYoqZ4fSZcuWuYxzdhx1Hvd0nDvenN/ce4mI1NryG9h0s3VBGNEdRn4I3c4JfF7Scg19FWIvMcfL/wt7Xwx8PiIiYqKi0ENpaWkUFhaSmfnDp5rODe3T0tJqY5MnT8Zut5OVleXSaGXOnDkAtZ1KPR3nlJ6eTnp6eu1Yb8739l4iIibVDlh/Gex80vp4h15GQdh1ovVxCW3Jz0NkT3N86wPG95aIiARVWE2dbiB5ecZD4cnJeg7Eyrx588jKynKJ1e1GWldGRobLzKLdbrfsUOrpOOdWGDNnznRZ6unp+d6ObQ7nslE1mhFpIw6tgU03QqW5wygA0WNg6HzoPDKweUnrUp4J66eY471+DknPBT4fERGprf9UFIrPqSgUaUPK3jUKwhOV1sd73gTJL2gvQvHM5ltg78vm+MgPIfaiwOcjIhLinPWflo+KiIi1vS9C7lXuC8JBT8CQl1UQiucGPgbtY8zxrQ8EPhcREamlolBERMyK/gmbf2p9rH03GPEe9L0/sDlJ6xeZaBSG9R1aC9t9/ziDiIh4RkWhiIi42vlXKLjL+lj0WBiTDXGXBTYnaTt6TQPb+eb4tj/C4U2Bz0dERFQUiohIHdsehi2/sz7WfQqMzQbtQSjNZTVbCLDtD4HNQ0REABWFIiLitOV3sH2m9bH4dEh5F9p1CmxO0jZ1SYW+Fh8+lL4DJQsDn4+ISIhTUSgiIsZy0Z1/tT6WeDsMey2w+UjbN/BR6Gg3x7f+AWqqAp+PiEgIU1EoIhLqNt1sNJax0vsuSP5XYPOR0BAWDgMeNcePboVCNTESEQkkFYUiIqHqRCWsuxSK51sf7/s7GPyPwOYkoSV+KvS42hwv+geUvhX4fEREQpSKQhGRUHR0G3x7LlQstj4+YCYMejywOUlospotBGNJ8+HNgc1FRCREqSgUEQk1+z6DtWfCwZXWxwc9Af3/GNicJHR1SobBT5njx/fCxuvgxIHA5yQiEmJUFIqIhJI9zxszhMd2Wh8f8oI2pZfA6/0r62Wkh9bC2nM0Yygi4mcqCkVEQkXh/ZD3c+tjYZGQ8h/o+dPA5iTiNPhp6Jhkjh9aDWsmwN55gc9JRCREqCgUEWnr9i+H1afCrr9ZH+/QG0Yvge6TA5uXSF2RPWHY6xAeYz5WXQGbb4W1Z0PZ24HPTUSkjVNRKCLSlu34M6ydCAdXWR/vdg6MWQ5dJwY2LxErXcbB8NchvLP18f2fQ+7V8M04YxuV6orA5ici0kapKBQRaYsqFsM3pxgbgbuTeIcxQxjVL3B5haCyA8eCnULrEnsxjP4cOia7H3NojdGddFkcbLzefRddERHxSFhNTU2N80VeXh4AyckN/CAWaURYWBgAdb61RCRQjm6DbX+E4lcaHmd/Evr8OjA5hai/f7CJj9cVU1RxmM4d2nPOiAQenDKczh3aBzu11qGqHAp/DcUveza+66TvG9Zc49+8RETaEGf9p6JQfE5FoUiQ7HgUts2AmhPux3SdAPY50GV84PIKMSdrYNq/V7Eir8x0rHdsRx6YksIZQ3sEIbNWqvQNKHoa9md7Nr7LOOj/J4i71L95iYi0Ac76T8tHRURau9I3YdVw2PpQwwVhvwdhzDIVhH426+31lgUhQFHFEX75Yo7b42Khx7Uw5ksYuRjiLml8/MHVsP4yKPglnDzi//xERNqAsPXr19dO56mQQNkAACAASURBVERERACaKZTm0UyhSIBUfgtb/wjl/214nO18GPAniDk9MHmFsM9yi7nn5dWNjkvs1pHXfjWBuOjIAGTVxhxaAyULoWQBHCtqeGzUQGOpdPerApObiEgro+Wj4jcqCkUCoPA3sOvJhsdE9oQBsyDx9sDkJKQ/vZzcnftdYmGA1U/Ds4bH849bTglIXm1W6duw+2nY93nD4/r+GgY18v+LiEgI0vJREZHWaP8X8M3YxgvCPr+GUwtUEAbQkvXFpoIQIOPHIzhzWLwp/vmGEt7/ppGZLmlYjx/D6KUw8kOIvcj9uJ1/gzWnG0tLRUTEREWhiEhrse1hWHsWHFrrfkz3K+CU1caSOXd7vYlfvLFihyl22uA4fnxaX2b8eATxXaNMx+d+nM9JrapovtiLjMJw8D+gXQfrMQe+gtWnQNGcwOYmItIKqCgUEWnpDq6GtWfC9pnux3QaCsMXQUomRI8NXG4CwJaSQ6zINzePueGMAQB0j+nAg1OGm44XVRzh2ax8v+cXMnrfBeM3QPcr3Y8puBfWT4Fj5iJeRCRUqSgUEWnJdj5pzG7s/9L9mAGzYPxGo0ujBMWHa/eYYlER7VyWjZ6TkkDaqJ6mcS8t3Ur5QW1w7zNRgyDlnYafISzPhFWjjK0uRERERaGISIt0ZDOsuwS2/Mb9mK5nGEtF+z8UuLzE0v/W7DbFpl9obtr2i7QkU6zqxEle+nyrX/IKaX1/DWOXu585P7EfCn4Fq08Dx/8Cm5uISAujolBEpKXZ/QysGgkVH7of038GjPlCS0VbgBX5ZewoP2yKXzymlyk2KD6aG88caIq/8sVWiiq0p57PxZxufHDS+273Yw6uhO8uhjUTYPdcqDY3CxIRaetUFIqItBSHvoX1V0D+L6GmynpM9FgY8zkMeDiwuYlbH1ksHT0nJYEeMdYNT247exAR4ea335eWbvF5bvK9wXMg5V3o0M/9mAMrIH86LIuF7y6AHY/Avi8Cl6OISBCpKBQRCbaaE7D1QfhmDJS/535cn/uMWY+uZwYuN2nUZxtKTLGLxyS6HR8bHcmtZ5tnC9/8agcFew/6NDepo/sUGP8dJN7RyMCT4PgEtmbAt2dBdrTxYU3RHKhcF5BUpQ07kgebb4V1Fxv/3PogHN0e7KxEaB/sBEREQtdJ2PUU7JrTcCfEjskw+O8Qe0ngUhOPZG8uZV/lcZdYVGQ4F4w0N5Sp69Zz7Ly+fAcHjrjOCL+0dAuPXjfa53nK98K7QvL/QcINsP1hcCxp/JwTlcaHNc4PbGIvNvb/7H6Vf3NtK04cMpbCV3wIhEFEHHRMgsSfBTuzADsJhffDrr+bD+18Egb+Cfr+PvBpiXxPM4UiIoFWVQI7HoMVvaDwvoYLwt7TIXWdCsIW6rP1xabYOcPjadcurMHzOkWGc+vZg0zx91fvJmdLhc/yEze6ngGjPoUhL3o/817xIeT+GFYmwd6X/JNfW7F9FmR3gQ3XGv+u9r4IO5+AvDvgu/Ng/7JgZxg4G39iXRCC8bjAlgdg43WBzUmkDhWFIiKB4vgENt4AyxOMJUPHzQVFrU7DjGegBv8T2kUGLkfxitXS0XNSEjw695azBxJv8dzhcx8XNDsv8VDPW41ndE9ZC33uhw69PT/3SAFsvg023QTVDv/l2BodWAmrUmDbH92PcSyBtZOg+LXA5RUshb+BktcbH1eyCHI1Ay3BoaJQRMSfqvdD0VOQM8ZoXlHiwS9AAx7+fgPuKf7PT5psRV6ZaX/ByPbtOHdEw0tHndqFhXH7uXZTfFVhOf9ZtcsnOYqHokeD/Qn40S5jZj7pn9DjGojo3vi5xa9Azigoe8f/ebYGpa/D2olweINn4zfdAPs+829OwVSyEHY1sGdmfWXvQl6oLa2VlkBFoYiIP+xfZryxL+8OBfdA5beNn5PwExi/ydhuQlq8pRazhGcPjycivOGlo3VNndCfEX27muKPvpvLttLKZuUnTdR5BPSaDsPfgAmlMPZrGPQ4RI9xf86xXcaS0h2PBS7Plmjvy7Dheqip9u68jdfD8b3+ySmYTh6FrQ9YHxv6CvR3M5O65wV9L0nAqdGMiARf+Qew/wujK1tVOYR3gfYxEB4DHe3GNgzR44wGBS3dnudh7zyjvb2net4Gfe6BziP9l5f43Ge5Fs8Terh0tK47L0jily/muMSOV5/kz+/m8uzt4wlv5PlE8bOYU42vvr8DRxbs+TeUvmE9duuDcKzImGkMNcWvwOZb3B/vez/ETDCeLazfZfl4sdGEZdir/s0x0LY+YN1Z1D7baHYExnvcppstzn3Q+IAi7nL/5ijyvbCampoa54u8vDwAkpOTg5aQtH5hYcYvMHW+tUSsbX/UWFpZVerZ+KhBED3KKJ6iR0HHYdB5ONACfmku+y/smAUHcxofC9ChFyTcDAm3QCf9zG1tcrZU8NPnvnaJtQsLY/msC+gYGe719Wa+tZ53Vu40xU9P6s5Tt55Ch/Za2NOiFC+Awruhqsz6ePcpMGwBtOsY2LyCpeQ143lpK11OhSEvuH7o9d354PjUPHbYaxCf7p8cA+3gN7A61RzvcY0xC13Xnn8ZzXfqi+wJ41ZBhz7+yVGEH+o/FYXicyoKpVH7lkLhPcZm7c3WzigMOw2DTsONP3ceabwOhMp1sG2G8RyIJ2IvNIrB+Ov9m5f41ZPvbeKVL7e6xM5NSeDvN49r0vWqT9Zw7d+zKSw+ZDo23h7HP24ZR6cOWtzTohzfAwV3Q+mb1se7nAJDX4VOQwObV6AVv2Y8F2ilx9UwdAG0i3CNHy+BnJFGJ+a6OvSFUwsC01yr+iAc3mh8RdigfXeI7AERPaB9t+ZfP/cq8/tCWHvjEYGO5meJ2foA7HjcHI+9GEYubn4+Im6oKBS/UVEoDSp53Xh+xN/a26DL+B++Yk6FSPcbijfJjj/D1j80Pi4i1pgR7HmrsRxIgurdlbvI23uQwQnRDO7ZhdH9vf8F8JLHl1JUccQl9qdrRzE51YvulfVYzT46jRto47Hrx9CzW1STry9+suV3sPOv1sciuhuFYeyFgc0pUEoWGFstWOl+FaS87f7c4leMzq319XsABv7ZN/nVVeUAxwdQ/j4c+BqObnM/NuEGSLzD2LqkKSo+hHUW2wjZnzC63Lqz/grz0lrw378TEVQUih+pKBS39s6DzbcG7/5RA8F2PsReBLaLILxT066zZy7seQUOftXwuK5nGIVgz1toEUtcQ9wzH+Xz1tc7qDjkutl8Us8uZPx4hMfF4dcF5dzx/EpT/MuZ5xPTMcLiDM8tWV/MvfNXWx6L7xrFrGtH8qMkDzpiSmAVPQ0Fv3J/3D4H+twduHwCoWQhbHSz1LP7FGNLncZsvN56q4bU9dA5pXn5AZw4ZGzzUPYmVHzk/fm9pjft+dC1k8x7MHZMhlM3N3ze8b2werzRuKi+ofMh4UbvcxFphIpC8RsVhWKp/L+wfrL74z1vAtuFcPKYsVdY9X44thsq18DB1cYyTV+LvRTirzWe8fDk2Z8jW2DHI41vWN3tfBjwx6Z/yiw+98c3viMzp6jBMQ9MGc51E/o3eq1Zb6/nra9dn/87JyWBOU1cOlrf5xtK+NW8b9wef/DKFKae3s8n9xIfKnvHmDU7edT6eLfzwP5Xo2lWa9fQio+4K2BEpmfXOZIPKy1+57R67s4b+z6Dvf82CkJvO6HW1/UMGL7I85UmxfOtG8cMfRkSLGZG63P8D7672PrYqE/Bdq5neYh4SEWh+I2KQjHZ/6XRWODkcfOxrmfC4H8Y+4Q15MQRozA8vM74Z2UuVG6A47ubn19YpFEcdjsPbOcZz7XUz7/sv43vNdVpiNFivK00Smgj7nrpG77YaN4+wsqj143isnENLwE9Y8YnHDhS5RL78/WjuXRsrybnWF/25lLuejGHk25+jN5y1iDuvXSIz+4nPnIwx3i+7nADM0LxN0D3y8B2CbTvErjcfKX0Ddgw1fqYNwWh07Y/wvZZ5viI/3rfefPAV7D9T8byTV+KHgcj3/esMFw11Pzfv+skGPOl5/fb8ZjRfbS+8M5GsRxrsTRVpIlUFIrfqChsISr+BxUfGA/yHy+BjklGFzhbGkQFcJahMhe+PQ+qzO376XEtDH+dZi2trCr/vlnABqNIPLweDq6C6gNNv2anFGgXBeFRcHQHHDN3hTTp+1sY9Jem31P84rH/bOD15RYt4Rvwz9tSOWNoD8tjn6zby69fWeMSi4oMJ3vm+USE+7ZD6MqCcjLeWMfefUcsj186rjd/vm6UT+8pPlBVanTidGQ1PjZqAET2MroRRyRAZAJExhtL3budbXxg1ZK4e1YOmlYQAlADX9vhqGvjJrqMg3HuZ8xNdv4Ftvzeu1t3Hm50sQ5rB8dLjUcC3M30dhkHIxopDN09Zz5ysdEwxhubbjCa+Fjp/xAMsCikRZpARaH4jYrCINs1x1jiWFXufkyf+6Df7yAi3r+5VJXA2nOMgq2+2Etg5Af+u3flOqM4PLgKDqyEQ9bPaTVbzOkw6K/GJ8HSorz8+VZmf7DJ8tht5wxiY9EBVuSZtxSwdY7k1bsm0CfWvKT4ly/m8OUm1y1UrjilN7Om+qc4K95/lIxF3/F1gfX/z6cOjuMv6WOIjW5hxYNA4b3Gz+OmCmsHXc8yisMe1wSuo7I7hzfCmklQXWE+Fne5MbPXVHvnw2aLJZcDH4F+jTTzqqkylmuWLGz8PlF26H45xF0GXc+GMIvtY/b8H+TdaX1+9FjjfcuqMDxS8P1S2Hq/+3S/ElLeaTw3K9+eY3TrttIpGQY8YnxviDSDikLxGxWFQVLyOmx/BA7neja+Qz8Y8i9j5tAvauDbc63f0GJ+ZDwb0dRGL01x8qjxyX3Fh8YsakOd5zwR2RP6Z0Cvab7JT3yqoU6ej0wdxeWnGEtEH1j4LYvXmJcgjxto46Vf/MgllrtrP+n/WG4a+/Stp3DmMP9+wPLou7m8sWKH5bFhvbvy3O2pdOuswrDF2fcZbP298cFUc/W+C/r+3phVDLSaalh9KhxaYz4WdxmMsOiY6a3vLgDHJ+Z46neuexzWVZlrFISHGphRjIiH+KnQYyp0nehZLvu/hHWXwomD5mOdRxkzolEDXOMbroPSRebx41ZBF4v9Cj1xbA/kToGDDXz/dJ1gvA/Fu+kCK9IIFYXiNyoKA+zoNqPrnVUba08M+iv0/Y1vcwLYcK31/l0dk2H0p8HfjHffUqMjXckb7jegdqf/H6DfQ8YSU/GpXRVH+M+qXXSIaEeH9u1I7NaRC0b19Ooax6pOMvWpbLaWVJqOPTAlhesmuC6fvvOFVZYzhpeN682jdZZnPvzWOt5d6doVcEivGN64x8NfNJvpxaVbeGqx9bNqYwbYeO72VDpGai/DFmnHo0aH0uMWy+i9EdbeKAwHBnjp4OZbje7R9cVeBCN99Pze/uWw1uL/pa5nwpjPzfGyt2Hzbe4fFegyHvrc2/Q9Yfd9Aesvsy4MOw2BIfOMDzjB/bLRvr8x3mOb40Sl8QxnRSMrazomQ8/boOfNxoeWIh5SUSh+o6IwgPbOg8K7m/f8HEDCT2DISxDWvHb6tQp+CUXPmOMRcTB6ifFJa0vi+AT2LQHHEjhoMbsU3sX4NDzu+2VH4a2wOUQr8OqX25izeDNVJ066xE8dHMdt5wzidA+3Ysh44zv+a9Fp9OazBnLfpeaNxCsOHePGf37FrorDpmOj+3dj/vTTyd97kKtnZ5vvddUIrv5RX1PcX95fvZs/vP6t5bHzR/bkbzeODVgu0gT7PjN+uS97H440sj1BQ7qkGg26Yk73XW7uFM2BgnvN8U5DYWw2tI/z3b3cbeDe86cw5AXjzycOwraZsOtv7q/T7/cw8LHm59NQYQhGY7HwaNjyW/OxqP4wPg/a+WgGf/tM2PawZ2Pjrze2QvLbSiBpS1QUit+oKAyA4yXGkqTGtkZIuMloWtBhgNH8YNeTxqeOVrqMN1pmN/e5lbyfwp4XrY+N/sTo8NmSVZXDiQPG1hg1x41/dhkf7KzavLvnfcPSDQ13CL330iHcctagBse8sWIHj75rXkKdOiiWf995mtvzvtlSwW1ulptOGd+HvfuO8FW+63N9cdGRLPlj4L+fvy4o596XV1N5zNxq/47z7Ey/UO/hrcLJw3CsyPg6vtv4uV5VasyA1Zw0tmtozMA/Gxub+4tjCXxn8T0e1h7GfgVdTvH9PXNGGMtC64u9xGjEU54JVRbPNYLxwebQl5s+O2hl/xfGdkrV+7w7b/gio5maLx3eCFsfMrY/8UT0KdDrZ9DzduvnJ0VQUSh+pKLQz/Y8b3ya6u5NESBuCgzIMO+HdWw35P8MyhdbnxdhgyEve98GHKDkVSh6Dg4ssz4+bIFv36ilzVi4bDuPZ1o0I7Jw3YT+PDBluOWx1VsruPVZc2HXIaIdi+6exMD4zg1e+7/fFJGx6DuP8gD4xQVJ3HnBYI/H+9LKgnJ+/sIqTlrsWRGIZxwlAI5sMZbg73gMTux3P86WBkn/gI4+3qLkeAmsOR2ObjEfG/KSMRPlD/u/hLVnen9ep+FGQdjU5/cacuBr49m+43s9G99/BgzwcFavKUrfhN1z3Tehqa9DP+OxjY7B+XklLZuz/vNt/2wR8a91l0Dez90XhFEDjA5wI9613iC5Qy8Y8YGxtMZKlQPWXwFbvPjkuew/Rl4bb3RfEA5+SgWhWNpSfIi//tezghDg9eXbeciicNtScshtQffQVSMaLQjB6CL6Sw9n2ewJ0UErCMFYUvvET8ZYHvv7B81YligtR8dBRpfoH22Hvr9zP86RBTmjja6ZvrTpBuuCsM+9/isIwdgsfqjF84sN6f5jGLvcPwUhQMxpxqMPMR50me5xjX8LQuc9Rn9mFHo9ftz4+GM7YIO6lErDNFPooenTp+NwOCyPLViwwBSbN28eWVmuexTNnDmTpKSkJo1zx5vzm3svT2mm0E823QzF890f73mz8YxJeIxn1ytZCJtuMrrKWYmIg+5XGW2vOyZBRA84cdhY8nQ4Hw4sN74a++R00BPQ937PcpKQ427Z6JXj+1DkOMJKN1sxTBzSg0enjsIWHUnpgWPcPe8bcneZZ1OuPb0ff7gyxaucGmroAhAWBv/3s1M5bbAPn6Vqouc/LeCZj8zLDN09Pymt2MFVRlOxA1+5H9N9stGIJuZH7sd4Iu9nsOcFc7zbuUYhEgg7n4QtjTRBC2tnvMf0uS8wOQEU3gNFzxqPF7jk0h7ss40usYF2OA9K5sPel+HYLusxnYbC+I2BzUtaBS0f9VJ6ejp2u51Zsxrv+DV79mxycnKYNm0akyYZnyplZGRQWFjoUoR5Oq659/HFvbyhotBPViYZ+yDVFxFnvCn2vNX7ax5cZRSbh/30RpH8HCT+3D/XllbP3RYPt5w1kHu/L2j+/sFm5n1uMVsBxHeNokdMB/ZXHmdXhXmD93EDY3npF+6fI2zI+6uLmLN4M6UHjrnEe8RE8eCU4Zw7IqFJ1/UHq70TAd68dxLJiWqK1Oa4a8ZSV8LN0O+3xpJKb21/BLZlmOMRPYznCDs2/FyvTx1aY+z3uK9e99F2HYzn5Pr9PjidrKsPQvFLULne+CC2fQzEX2d0AA22kkWw9wXz9h4JNxnLa0Xq0fJRP8nOziYnJ4e0tLTa4gvgpptuAmD+/PlejWvufXxxL2khrDaaT7wdxm9qWkEIRgOVscub9gxhQ2JOM355UEEoDbDad29wzy61BSEYzWXuv8y6+VHJ/qPk7txvWRDGRkcya6qbvc08cNm43nzy0Lk8d/t4rv5RPy4/pTd3XzyExb8/q0UVhIDLv6+6nv/E4kMkaf0GPgYj/9dwAVL8MqxKMZ6Da2wrg7p2z7UuCAGGvhrYghCMzeJHL4Xxm429EAc/BWOy4YyjkPTP4G1t1L4L9P4VJD8P9ieNLqQtoSAEY0/GUR/DuJVwVg30uBr63KOCUBqlDY18rKDAeBOeONF1r52kpCTsdjuFhYVejWvufXxxL2khRmQaz3gc/AYmlELFYqMbW3O172Y8h+hunyVvRI+DXj+HxDuan5e0aUXf70dY39TT+5liN545gI4dwpn19nqPrt25QzhP/GQsfWI7NTvP05O7c3qyZ1thBIs9IZq7Lx7CUx+6Lnn9eN1elueVMaGF5y9NEHuhsal7wa+M5mPulGUaX51HQHy68RXV33rsd2ng+Nj62JB/QWwQtzfolGx8ieecXbOHW+wXLGKhXW5uLs4vaT5ngWW1HNNmswGQn5/v8bjm3sfbsdKCRXQ3Ph2e8P0yMV8UhHX1exDG50KvO419lzwVHm08xzJyMZzyjQpC8Uhmjrkg7BHTgWstikKAq0/ry7O3jyc2uuE9v7p1iuTZ208l1R7rkzxbi9vOGUTfOHMR/NJS66W30ga06wDJ/2d0du48ouGxleth64Pw9QCjMVjh/bD3RSh9x/hAcPV49wVh/4eMpZoi0qa1T0n54QF855pSsVZYWEh6enrta5vNxjPPuG7QXVHRwDYB3ysuLvZ4nLtn/bw5v7n3khDSaTgkPWs0rHF8bOyTdSTfaCxz8giEd4J2nSC8s9HlLWaC9vCTJlm8Zrcpdu3pbmYwvjchuTuv3TWBl5ZusVx6etWpffnZeXZ62Tr6LM/W5PZz7cx4c51LbGVBOV9uKuWMoT2ClJX4Xfz1xlfRXNj1Fzhq/n/DRcWHxpcnEm6EAY33UhCR1k/LRz1Uv8Nofn4+M2bMID093S8dPNsCzT62dknffwFWv2Mf/v5rr/47i3e+3XWYneWHTfEx3as8+rlx7YhIJvXtz8Y9RyAMamqgf2wkSfEdqCzbRX6ZP7Ju+VK6weAeHSgodW2O8/xHG+gZ3itIWUngXACxF2CrfJGYyjeIrG7eLPH+TtdREp4Bei8Xcast/f6vorCJkpKSmDZtGnPnzuW9997jvvsC2A65lVD3URGxkl14yBQb378T3Tq28/jnRmJMexJjXDtr6mcOXDaiG3M+K3aJfVd0mDU7KxnTp/nPWErLV9HpVio63Ur00Y/pevgNOh/7wvtrdPkFZdH3GJ+4iEhIUFHYDAkJRge6uvsXxsbGut3PsO55no5zx5vzm3uvpmpLn56IiG8cqzrJsnlbTfFrJiWTlNQzCBm1LUlJ8HH+CtOejUu2VHHNOfqZHFqSgGnUHCmEkoWElb0OlRsaPiX2ImoGPIoteiy2gOQoIi2FikIfq9u4pX5R5HA4sNlsJCUleTyuuffxdqwvOfcrFBFxWpJbzPHqky6xbp0iuHB0YpAyantuOGMADyz81iW2Iq+Mr/LLW3wnVfGDToNhQIbxdXiTsS+t858nDkFkT+g4xGgYFjUAvXOLhCbtU9gMGzYYn7ilpqbWxux2OwDLli1zGevsOOo87uk4d7w5v7n3EhHxlSW5xaZYmgpCn7pkbC+G9Y4xxV/5clsQspEWpdNQ6H4l9HsAhs6HlHcgaS70uRuiBgQ7OxEJIhWFHpg9ezazZ892iWVnZ7No0SLsdjuTJ0+ujU+ePBm73U5WVpZLw4Q5c+YA1D576Ok4p/T0dNLT02vHenO+t/cSEfGHI8dP8Om6vaZ4S9sMvi248cyBptiyzaWsyAvRLjwiItKgsJo6T+Y7t6RITtYGoXU5O43WN3XqVJeCsK6MjAyXTeHtdjuzZpnbOns6zrkVRv1Op56e7+3Y5nAuG1XTBxGp64PVu3nwdddljT1iOvDJQ+cGKaO27do5y9i8+4BL7PTk7jx3u7aRERERg7P+U1EoPqeiUESs3Dt/NUvWuy4fvW5Cfx6YMjxIGbVtH6wu4sHXvzPF5/40lYlDtG+hiIj8UP9p+aiIiPjd0aoTLM0tMcXP09JRv7l0XG/LZwvnf6FnC0VExFWb6D66Zs0aKisrKSgocIkPHjyYzp07M3bs2CBlJiIiAJ/llnCy3uqBHjEdOHVwXJAyCg03nzWI3y9Y6xL7Kr+MLzeVcsZQzRaKiIihVRaFpaWlLF++nPXr11NYWMjRo0ctx2VlZdX+OSUlhREjRjBhwgR69NAboYhIIH1m0XX0nBTNEvrbxWMSefXLrazf6bpv4cufb1FRKCIitVpVUZifn897773H+vXrawvBqKgo7HY7vXr1omPHji7jKyoqcDgcFBUVkZubS25uLosWLSI1NZXLL79cm6uLiARA9YmTLN1gXjp6zvD4IGQTem46cyC/fc11tnBVYQVZ3+7RdiAiIgK0sqLQ2QE0MTGR1NRUUlNTPS7s1qxZw6ZNm8jJyan9WrBggT/TFRERjKWjx6pOuMRsnSOZoGYnAXHh6ERe+XIb63bsc4k/+3GBikIREQFaWVGYlpbGxIkTmzTDN3bsWMaOHcv1119Pfn6+aSN3ERHxD6sN67V0NLBuOnMgv3l1jUtsS8khXlhSyO3n2oOUlYiItBStqii85ZZbfHKdpKQkLR0VEQmA6hMn+XS9uSg8V0VhQKWN6skHw+NNy3if/l8epw2OY2S/bkHKTEREWgJtSSEiIn6zxGLpaLdOEZwxTEtHA+0XF1h/GPp45sYAZyIiIi1Nq5oprCs7O9vl9aRJkwDj2cF33nmHwsJCAOx2O1dddZW2pRARCYJP1+81xc4b2TMImcjQ3jHcevYgXlq6xSW+fuc+7n91DU/eoPdJEZFQ1WpnCgsKCpg7dy4vvvhi7f6E+fn5PP3007UFIUBhYSFPP/00a9ascXcpERHxg6PHT7BES0dblHsuGcIoi6WiH3+3lwcXfhuEjEREpCVotUXh6NGjiYqK4q677qp91nD+/PmmPQsTExM5evQoixcvDkaaIiIh68O1ezhefdIlFhsdySTtjxdUv58y3DL+wZrd/PGNdQHORkREWoJWWxQuXryY6667rnZZ6MKFC11mCAGmTp3K3/72N6ZNm0Zubm4w0hQRCVkfrt1til04hPLIwQAAIABJREFUSlsgBFtKn648nj7G8lhmzi7ufGEV20orA5yViIgEU6stCnNzc0lLSwOMZaMff/yxy/EzzjiDyZMnAz88bygiIoGxrbSSrwvKTfGLxqoobAkuHpPIrKmjLI+tyCvj2jnZ/GfVrgBnJSIiwdJqi0Iwms2Ulpby3HPPuSwbtdlsXH311S7jUlJSgpGiiEhIspolHNIrhjH9bUHIRqxccUpvMn48wvLYsaqTzHhzHXf+axXL88oCnJmIiARaq+0+mpKSwty5cy2PXX/99fTo8cMzK++++y5nnnlmoFITEQlpNTU1vPnVTlP84jGaJWxprj6tL1XVJ3k8c4Pl8RX5ZazIL2NCcnemTujP2cPjA5yhiIgEQqstCi+55BIKCwtNjWWmTp1au1y0tLSU559/nj179jB8uPWD9SIi4luLVuyk/OAxU/ySsb2CkI005vqJ/RncM5o//2cDW4oPWY5ZnlfG8rwy+nfvzJTxvbl0XG8SukYFOFMREfGXsJqamhrni7y8PACSk5ODlpA3SktLeeutt9i9ezdRUVGcddZZLs8PPvrooy5F46xZs4KRZsgJCwsDjNkCEQk9Vz75BVtKXBuVTBnfh5nXjAxSRuKJqhMneezdDby90jzLa2VQQjQJXaOoqj5J1YkajlWfILxdGFER4US2b0enDu05ZaCN1EGxDOkV4+fsRUSkKZz1X6suCqVlUlEoErreWLGDR981d3t+/e6JDOutwqA1+OjbPbz8xVZyd+732TXPHZHAjWcMYNzAWJ9dU0REms9Z/7XqRjMiItJyVB6rZm5Wvil+bkqCCsJW5MLRiSy4awKPp49meJ+uPrnmkvXF3Prs1zz/aYFPriciIr7Vap8pdMrPz+eTTz5h/fr1OByO2nhiYiKDBw/m/PPPJykpKYgZioiEhmez8nFUHjfFr5/YPwjZSHNdPKYXF4/pxdINJfxn1S4+yy1u9jWf+SifrSWVPHb9aB9kKCIivtKql49mZmayaNGiRsdNnTq1ds9C8T8tHxUJPdmbS5n+7xxTfHJqb/50rfV+eNK6bC+t5P3Vu1mRX8a6Hfuada3LT+nNI272SRQRkcBx1n+tdqYwOzvbo4IQYNGiRcTFxWkTexERPzhefZK/WGxpEBHejmlpreNDRmlc/x6dmX5hEtMvTGJf5XFKDhyj7MBRIr9vLBMZ3o4ajO+HquqTbCjaz3vfFJG356DpWu99U0RURDgPXaU9hEVEWoJWWxR+/vnnXo9XUSgi4nsPLvyWHWWHTfG7LkqmZzdtW9AWdescSbfOkSQndnE7JtUey01nDuTZj/N57mPzs4RvfrUDe0K0lheLiLQArbYozM01utvZbDbS0tKYMGGCy4b1TllZWXz00Ue140VExHeefH8TH6/ba4pPGtqDm88aGISMpKX5xQVJxMdE8ae315uOPZ65gaSeXUi1qyupiEgwta9bLEVERAQxlaa55557Gmwkk5aWxtixY7n77rsDmJWISNv36pfbeOWLraZ4ZPt2/PbyYUHISFqqH5/Wl2NulhnPeHMdr911Ot06RwYhMxERAWiXkpKC86s1sdlsAB53Fk1MTLSMz5s3z2c5iYiEio++3cMT7220PPbn60fTv0fnAGckLV36xP5cN8G8VHRXxWFmvLkuCBmJiIhTq92ncPz48YBnRd1bb73FhRdeaIqXlpaSlZXl89xERNqy/63dw29fW2t57P7LhnLByJ4BzkhaiwemDLdcKrp0QwnPWOxxKSIigdFqnykEY7YwKyuLoqIievfubTnmyJEjFBQU0LFjR1MBWVRUFIg0RUTajMVrdvPAwm8tj/1k0gBuPFPPEUrDZl49kp/8cwX76u1p+fwnBQzrHcO5KQlBykxEJHS12qKw7gxfbm5uo41k9uzZ4++URETatA9W7+bB160LwvNG9uS3V+g5Qmlcn7hO/OnakfzqpW9Mx/701nqG9e5KorrWiogEVKtdPioiIoGzeI37gvCMoT148oYxAc5IWrOzhsUz/ULzHpaOyuOWXUpFRMS/VBSKiEiDPvr2/9m77/CoqvQP4N9JpmbSIYSEGlIooQUC0jvBhoCiQFRgBQuwNnT9ua6IiK7uqoiuYgMFXCmCCKIoAaSFFgKhl0xCS6ghCanTkpnfH2yQ4c4kM5nJ3Jnk+3keHs17zrn39TEk895z7jmXbS4ZHdC+CT59IhE+EombsyJv99TQaKtLRXefzrO6SykREdUdr10+CgDR0dGIjo6u9fjs7GxkZ2e7MCMiovol5cgVm5vKDOrQBB9P7u7mjKg+eeOhjjh5qRiXC7UW8WW7ziMsUIknBrcRKTMioobFq4vC5557zuqB9fbKy8vj+YVERDZsO3ENf/tvhtW2wfHhmD+pm5szovomxF+O2Q91xDML9wvaPv7tNMxmM6YMqf3DXyIiso/EbDabq77IzMwEAMTFCdf5E9lL8r9lZLd9axGRl9mruY5pC9NhsvL3eGCHJviEM4TkQt/tPIsP1p+y2jb2rpZ4ZVR7KKR844WIyNWq6j/+hCUiIguHz9/Ai0sOWi0I+7cLY0FILvd4/yhMGmj9OJPV+y5g5L+2Y9mu8yjTV7g5MyKihsHjZwrfeecdi+MmlEolevTogWnTplU7TqPR4IcffkDHjh0xatSouk6TbsOZQiLvdfpSMaYtSkd+iV7Q1qdtYyyY0gPcUobqyttrjmPV3gs2230kEiR1aYoRnSMwpCPPMyQiclZV/efxRSEAJCcnAwD69++PsWPH2v0eYUZGBhYuXIipU6ciISGhLlOk27AoJPJOOfnlePrrNFws0AraElqH4Msne0Ah8xUhM2pIPvzlFJbuOFtjv2A/OYZ3boqkzk3RM6aRGzIjIqp/vGb5aEbGzU0ORo4ciWnTpjm0sUxCQgKSkpKwZs2aukqPiKheyCvW4YUlB60WhO2bBWH+pG4sCMktXrq/HWaP7QiFrPqPKDfKDVi19wKe/CoNYz9Kxdr9uW7KkIio/vH4ovDUqVOIjo7GhAkTajW+auloamqqK9MiIqo3SnUVeGHJQWRdKRG0tQ5T46NJ3RCslouQGTVUD/ZsgdUv9sPI7s3s6q+5XILZq45i8oK9OJ5bVMfZERHVPx5fFJ45cwb9+/d36hr9+/dHWlqaizIiIqo/8kv0mL5oP47lCD9INw1W4aNJ3RARrBQhM2roWjZW4+1xnbHi+b54vH8UwgIVNY7JOFeI5E92Y8Xu827IkIio/vD4cwoLCgqcfh8wISEBGzdudFFGRET1Q25+OWZ+l4HTl4oFbUF+MsybmIA2TfxFyIzoT+2bBaJ9s0C8PLIddpy8hpQjV5By5Ar0xkqbY95dewJF5UY8PSzGjZkSEXkvjy8KL1++7NQB9QAQFhaGy5cvuygjIiLvp7lcgpnfHcSF6+WCNrnUBx9N6o745kEiZEZk24D2TTCgfRO8ObYTUo5cxsbDl7HtxDWrfRekaGA2A88MZ2FIRFQTj18+CgB5eXlip0BEVG8cuXADzyzab7UglPr64KNJ3dA9KkSEzIjsI/WV4N6ESHw8uTsWPXMX4ltYf4Dx+SYNvk895+bsiIi8j1cUhbt373ZqPDeZISK6KS0rH898vR/Xi4XnEAaoZPhiaiL6tXVudQaROyW2CcWyZ/vg4V4trbb/++eT+OPYVTdnRUTkXTy+KIyOjkZKSopT10hLS0NICJ96E1HDtv3ENTz99X6U6SsEbU2ClPhiaiJ6RPO8N/JOrz8Yj66trf+uf/2HI8i+WurmjIiIvIfHF4WRkZEoLCzEvHnzajV+3bp1SE9PR2RkpIszIyLyHkt3nMVziw/AZDYL2lqFqfHF1B7o2CJYhMyIXGfJ9F4Y11s4Y1imq8CslUdQaRJ+/xMRkRcUhb169QIApKenY9asWbcOs6+JRqPBvHnzsHLlSgBAmzZt6ixHIiJPVaI14v+WHcaHv5yy2t6uWSC+mNoD0eHcZZTqh9fGxGNIx3BB/HhuEWatPCJCRkREns/jdx9NSEhAdHQ0srOzkZ2djffffx8RERGIiYlBZGQkGjX6c6lTfn4+Ll26hKysLIvdRpVKJYYNGyZG+kREokk5chkfbziN3AKt1faurUMwf1I3hPBgeqpn3n6kMx7L24MzdywZ/TXjElo29sMzw2NFyoyIyDN5fFEIABMnTsS7774LnU4H4OYxFY4cMTFgwACnj7UgIvIWuQXl+OS3TGw8bPvnZO+4xpg/qRuUMl83ZkbkHmqlFHMf6YzHP90jWDL9+aYstGisxn0JfK2EiKiKVxSFsbGxGDVq1K2loI6IiIjA5MmTXZpPamoqFixYAABISkqyev3FixcLNsiZM2cOYmNja9XPFkfGO3svIvJ83+04i482nK723anJA9vgxfvaujErIvfr2CIIb4/vjNeWHxa0vb7iMFo08kPnlnyPlogI8IJ3CquMGjUK48aNg1KptHtMREQEXn31VZfnsnz58mrb582bh5SUFEyfPh3Lli3DsmXLEB0djdmzZ0Oj0Tjcz9n7uOJeROTZTl0sxlNfpeGDX07ZLAiD/GR4/7EEFoTUYNyXEImnhkYL4iYz8PrKI7hRZhAhKyIiz+M1RSFwszD8+9//jsTExGr7KZVKJCUl4cMPP3T5stF169ahsLAQ48aNs9qempqK9PR0JCUloV+/frfiEydOBAAsXbrUoX62ODLe2XsRkWdbtPUMxn28C/uy8m32GRIfjhXP90VS56ZuzIxIfDNGxOFeK0tFz+eV4aXvMqA3mkTIiojIs3jF8tHbxcbGYubMmdBoNEhPT8eZM2duvWsYGRmJyMhI9OnTp87eIVy5ciUSExMtNri5XVZWFgCgb9++gryrNsxxpJ8tjox39l5E5LneXnMMq/bm2GxvGqzEc3e3xX3d+P4UNVxvj+uMnPxyHL1wwyKefqYAzy1Ox78fTUCQn0yk7IiIxOd1RWGV2NhYt78LV3VW4syZM5Gammq1T1WBZS23kJCbh+pqNBq7+9n6b3RkvLP3IiLPU6qrwKvLD2HnyTybfR7r3xrP3R0HBTeTEYUxey+MJ7ag4voF+AQ0hqLLfZDF9hE7rQbJ10eCd8Z1xsQFewVLRvdq8jFpwV68/mA8EtuEipQhEZG4PH756EsvvSTYHMVVUlJS8NJLL9nVt2pmMikpqdp+BQUFNV7r6tWrdvdz9j6O9iUiz3exQIu/fL7XZkHYNiIAXzzZA38b2Z4FoUj0B35CyZLp0O3/Ecaz+2E48htKvvsryta9JXZqDVarMDXendAFEolE0Hb2WimmfLEPM7/LwM8HLuLIhRsoKOX7hkTUcHj8TOGAAQOwYsUKhIWFISEhwWXXzcjIwIoVKzB+/Hi7+i9duhQhISEu38m0PuMGNkSuV24wYc6GS8jO01ltbxuuxDv3hwMohEZT6N7kCAAgz0lHwLb3b319ewmiP7AWxQXXUdrvWfcnRgiTAP83vCneS7F+XMuWo1ew5eiVW1+rZD5oEiBF00A5wgOliGqkQM/W/lBIhYUlETU89WmVnccXhaNGjUJ6ejr+85//YPjw4ZgwYYLT11y+fDk2bdqE6OjoGmf+gJuby2RnZ2P69OlO37shMZttb4lPRLXz4eYrNgvCJ/s2RlL7IP7dE5lfxrJq2xVnU2FsFA1du3vclBHdrntLP7x2dwT+s+0aSnSV1fbVGk04X2DA+YI/Zw0luIpBcQF4qGsIwgP5HiIR1Q8eXxQCwHPPPYf33nsP69evR2pqKjp27IhOnTqhbdu2dm0ok5eXh4yMDGRnZ2P//v3Q6XSIiIjAU089Zdf9U1JSEB0dbbFzpy2hoaEoLKz+6Xx4eLjd/Zy9j6N9Xak+PT0h8gSvfH8Ihy+WC+IBKhn+Ob4z+rermw22yH66vSugLbpYY7+AwyvRbMAj8AnibrBiiI0F7upYhjdWHcPh847NqJsBbM0swdbMEvx1RCymDhEeeUFE5G2kx48fv/WFTOaZT7zCwsLw6quv4r333sPly5exc+dO7Ny581Z7REQE/Pz8BOPKy8tx+bJwiUjV+YX2FJQajQaFhYUoLCxEcnKyoD0lJQUpKSkYN24cRo0aVe3GLYWFhQgJCUFsbKzd/WxxZLyz96ota+9tEFHtvLv2BFKOXBHEVXJffD6lBzq1DBIhK7qTYf8qQcxHFQiTttgiZjbqoN38KfzHvuOu1OgOrZv4Y+mMXli7Pxdf/5GN3HzhA5eafLpRg5x8Ld56pFMdZEhE5D7S+Pj4W19kZmaKmEr1qgrD1atXWxSEAKwWfrYkJSU59F5gbGwsli0TLgVKTU3FggULBNeLjo5Geno6du3aZVFoVe04WnXGor39bHFkvLP3IiJxrdxzHit2n7fa9sHjCSwIPYQxcycqr58TxAMmfwF9xnro9i63iBuO/IaKu8ZB2qKzu1IkK0b3aI7RPZrj4NlCbD9xFbkFWuTklyM3vwxl+uqXlwLAuvRc5OSX4e1xndEsVPiAmojIG3jF8tEqYWFhmDZtGnr16oWtW7ciPT3d7rGJiYkYOXJknS9prHoHMiUlBX379r11v/nz5wO4eZyFI/2qVM1SzpkzB7GxsQ6Nd/ReROQ59mfn458/nbDa9s8JXdCvLZeMegr9kd8FMXn7wfCNaAdV41YwnNgCU/E1i3bd3uXwZ1HoEbpFhaBbVIhFLL9Uj4sFWlws0OLI+UJsPnoF14r1grEHzxZi4md78ekTiWjfLNBdKRMRuYzEfNuOBFUzhXFxcaIl5Ii8vDzs3r0b2dnZVt+Zq8vD7G3NFFaZNWuWxaHw0dHRmDt3bq373VkUOjre0b7OqFo2ys0uiJxTWGbAY5/usbqs7dVRHTChbysRsiKrKgwomNsHMJsswv4TPoS8/WAAgP7AGpSte1swNGj6Cvg29Y7fuw1dRaUJX27Jxlebs6y2Nw1WYcGURESH+7s5MyKi2qmq/7y6KCTPxKKQyDWe/fYAdpy8Jog/0rsl/jEm3soIEovh+GaUrnzFIuYT0BjBf7M8Z/fGRyNhKrTciEbRbRTUo2fXeY7kOj+nX8SsH45YbWvRyA8LpvRAy8ZcSkpEnq+q/vP4w+uJiBqir7ZkWy0IE9uEsiD0QMbTOwUxebuBgpiyl/BsXP3BdTCXFdRJXlQ3HkhshiXTe6F5qErQlpNfjueXHMCVG9aPjiEi8kQsComIPExaVj4+2yjc+CtELcech7nLoScyZgqLQmlcf0FM2WsCJH7BgrjuwE91khfVna6tQ/D51B5o0Ug4I3jmaileXXZIhKyIiGqHRSERkQfRGyvxz7XWN5Z565FOaG7lAyiJy5i9D6byGxYxiVwFeVthUQiJDxTdxwjC+gNr6yo9qkMtG6sxf1I3hAcpBW0Z5wrx+krrS0yJiDwNi0IiIg/yz7UncPZaqSD+1NAYDGjfRISMqCbGzFRBTBbXD4D1s1qVVopCU+FFGI5tcnVq5AYxTQMwf1I3BKuFZz2vP3ARX2yyvikNEZEnYVFIROQh1qTlYO3+XEG8Z0wjzBhRt8fpUO0Zs/cJYvK2A2z29wltDnn8cEFcf5Czhd6qQ/MgzHu8m9W2zzdpsP7ARattRESegkUhEZEHOHO1FO9aWTaqkPrgtdEdRMiI7FFZeBGV14QzQdKY3tWOU3QfLYgZs/ag8orwXVLyDt3bhGLuOOtnTs5edRQnLxa7OSMiIvuxKCQi8gDvrD0OQ4VJEH9tTDyimvDMM09VcSZNEJM27wgfdWi142Qxva2eTajju4Ve7YHuzfD0sBhBvNJkxlurj/KoJiLyWCwKiYhE9p/fM5GeLTySYEyP5hjdo7kIGZG9rBWFsjZ32TVW0W2UIGbIWAezodzpvEg805NicX+3ZoL4iYvFeOvHYyJkRERUswZRFGo0GiQnJ4udBhGRwM5TeVj4R7Yg3qaJGq/xPEKPZ7DyPqG0TU+7xiq6jwakcouY2aCFfv9ql+RG4nnrkU5o3yxQEF+Tlosf9lwQISMioupJxU7AGampqUhLS0NhYWG1/bKzhR+4iIjEZjKb8cH6k1bb/vFgR8ilDeK5ndeqyD0Ks5WjKGRtetg1XiJTQZn4IHR7V1jE9WmroOw70WV5kvv5+kjwxthOSP5kF+5cMfrOT8fRuVUw2kUKi0YiIrF4bVGYkpKCxYsXi50GEVGtzfvlFM7llQniz94dh8Q21b+TRuIzZltbOmrfLGEVRY+HBUVhZeFF6A/9AkXX+53Kj8TVoVkg3nioE+asPipo+/CXU/j6Kce+V4iI6pLXPoZet26d2CkQEdXagTMF+G7nOUE8xF+BqUOiRciIHGW0+j6hYx/0fcOiIO8oPJ5Ct2tprfMiz/Fgz+YY16eVIJ6WlY/F28+IkBERkXVeWxTWtGSUiMiTfbHZ+oHW3zzN2QNvYDbqUXF2vyAutXPp6O2UPR4WxCqvZkG/d3mtciPP8troDmgbGSCIf/JbJi7f0ImQERGRkNcuHw0JCUFhYSFGjhyJFi1aVNs3JycH69evd1NmRETVW3/gItKy8gXxF+9rhzbhPH7CGxjPCmcJfYMj4NtEeBxBTaRRiZC3GwjDqe0Wce32RZAnPACJQl3rPMkzvHx/ezz5leX3TKXJjC83a/Dm2E4iZUVE9CevLQr79euH9evXY9iwYQgLC6uxv16vd0NWREQ1+9LKLGF88yBMHhglQjZUGxVnXDNLWEU54AlBUWgqK0B5ysdQj3yt1tclz9AzphEmDojC0h1nLeI/peVidGJzdG0dIlJmREQ3ee3y0QkTJiAxMRHvvfceNBpNtX01Gg1SUlLclBkRkW3fbjuDnHzhOXTPDHd8honEY3XpaFTtl/5Km3eCovsYQVy/fzWMml21vi55jmeGxyBYLRfEv97CHdKJSHxeO1M4a9YsAMDly5fx7rvvolkz4UGxVXgkBRF5glJdBRZtFW4uMbxTUwxo30SEjKg2TDcuoeLyaUHc3qMobFENehKGI7/BbLR8z6w85WMExfZ16tokPrVCimeGxeC9dScs4qmn85B6Og/92ta86omIqK54bVF4e6Gn0+lY+BGRx1v4RxZKtEZB/MmhnCX0JsasPYKYtFk8fAKc+1DvE9QUqqTnUf7rvyzilVezoN3yGVRDZzh1fRLfhL6tsCYtB5mXSyzi3247w6KQiETltctHiYi8SW5BOb7ddlYQf7hXS6s7E5LnMmp2C2KymN4uubbyrnGQRfcSxLXbF6Hi4jGX3IPENXlQG0EsPbsAm49eESEbIqKbWBQSEbnBoj+Ey0Z9JBJMGSL8gEh1z6wtQmXeGVRcyXRwoBnGLCtFYWwfF2UGqJKesxov/32+y+5B4rkvIRKdWwYL4t9u47mFRCQer10+CsCu4ygAHklBROI6euEG1qTlCOJThrRBRLBKhIwasEojyjfOhy7tB8BUCQCQxfSCsvdjdhV2xuw9MBstd7P2UYdC2rKry1KURrSDavDT0G790iJecf4gtKlLoOo3yWX3InH8ZVAbvLj0oEXsWE4Rfj14Cfd1ixQpKyJqyLy2KExKSsKECRPs7s8jKYjIUT8fuIgrN7QIUMkQ5CdHUqdwSH0dX2Bh7aD6YLUMUwZHuyJNspNJW4TSZS+h4rzlh3Fj1l4Ys/ZC3nUk/B+cU+01DKd3CmJSFy0dvZ1q8NMwnN6ByksnLeLalI8hb9sfvmGcYfZmQzqGo0d0KPZnF1jEv912hkUhEYnCa4vCyZMni50CEdVTH/xyCj+n56Ko3HJTmPf95Xi8fxSeGGz/B/LfDl1C6qk8QXzqkBio5L5O50r2K//5HUFBeDvDofUogxnqB9+y2cd4cqsgJnfh0tHbqUe8iOJvnxLEyzfOR8Bjn9TJPcl9/jKojaAo1FwpwYrd5zG+TyuRsiKihqpBvFOYmprKcwqJqEbn88rwxOd78d2Os4KCEAAKSg34+LfTmLRgL85cK63xehWVZny2UXiOalxEAB7v39olOZN9dOlrYDi+ucZ++kO/oOznt622VZxJg6n42h1RCWTtBrogQyFpVCKUfR8XxI2ZqdCn/VAn9yT36ds2DP2tHEXzzdYzqDSZRciIiBoyj58pzMjIwMKFCwEAU6dORUJCAgAgOTlZzLSIqJ45kVuEv36TjvxSQ419D50rxKOf7Ma/Hu1a7fmCH/xy0sZB9bFO5UqO06cuFsQkUjnMFcL/3/r0NfAJaQ5Vf8sVKfrDGwR95R0GQyL3c12id/Ab8QKMp3ei8vo5i3jZhn9D2robfJvwOBNvNnVwG+w8afmg4WqRDl9vycYzw/n/lojcx+NnChcuXIjCwkIUFhbeKg6JiFzp5MViPLf4gF0FYZVyQyWe/fYA1qXnWm3fduIalu86L4gPiQ/H0I7htc6VHKfb8z0qC4T/n9Rj/wn1A69bHaPd9AkMRzfe+tqsLYLh8C+CfvL4Ya5L1CoJ/Ea8KAybTCj75V/COHmVrq1DcH/3ZoL455s0OGvHagR3On+9DAtSNHhhyUHc/6/teOD9HUj+ZDfmrjmGnSeFS+SJyLt4/ExhYWGh1X8nInKFK0U6/O2/Gcgrtr4Z1cQBUaioNGGZlQIPAN744Siu3NDh6WF/PtXXXCnBaysOC/r6+kjwwr1tXZM42aeyAtqdwllCeacRkHcYcvMLsxll698R9Cld/RoCA5tA2ioBuj3LYTaZLNolfsGQd7q7TtK+naxtfyh6Pgx92iqLeMW5A9BuWQDV0Ol1ngPVnScGtcEvBy4K4p9t1OCDxxNEyOhPZrMZ6w9ewoaDl7BHc91qn+O5RVi9NwdRTdR4YlA0HkgUFrlE5Pk8vijs378/du7ceevfiYhcxVBhwiv/zbC6xDOqiRpvPtwJXVuFAADuSYjE7FVHceaq8On9ghQNTl0qxoS+rSH3lWD2qqMo01UI+r10fzu0ClO7/j+EbNIdXAtzab4gfvuxDooeD6GyIAe6XUvmfalmAAAgAElEQVQtO5nNKF46A8q+E6HbIVypouh6n8vztcXv3v9DxbmDqLyWbRHXbl8IaasEyOpgB1Ryj+hwf0wZEo1Ff1j+v9109ApW78vB2LtqPnrrRrkBvx+6jINnC3H2WikKy4wIVcsR6i9HaIACUWFqdGoZjE4tg6FW1LzBVV6xHqv2XsAPey6gsMy+FRRnr5Vh1g9HsOXYFbz+YEeEBSrsGkdEnkFiNptvvc2cmXnzEN+4uDjRErImIyMDAG69TwjcfKdw5MiRdh1LsXjxYqSkpGDZsmV1liP9SSKRALj5hJHIkz23+AC2n7hz4xCgdZganz6RiBaNLN8VK9VV4JXvD2HXaceXSg2OD8f8Sd1qnWtDYCrNR8W5A5D4+MK3eSf4BNp+X9NexV8+joqLxy1iim6joB49W9C3dOX/wXB8k93XDn5pA3yCmjqdo70qzh1A8TdPCuI+Ic0QOGUhfAK5LNlbmUxmjHx/B3LveEDlI5Fg5Qt9ERcRYHWc5nIJvk89h5/2W1/Gbk3byEB0aB6E+OaBUMp90blFMPxVMpTpKpCWnY/07AL8duiSU/89jQMVmPVgRwzq4PzfYSKqW1X1n+TYsWO3PrnLZDIAnlcUWjNr1izMnTu3zvpT7bEoJGdoDZXIzS9HbkE5rtzQ/dkgASS39VPKfJHQOqTWM2+vrzyC9VaWbIUFKrHo6Z7VXtfWWFviIgKwZEZv+PEICpt0qUtQnvKxRUw1/DnBZi+OqDibbvVIh8Cnv4O0WbxwgMmE4m+mouLCoRqvreydDL97Xq51brWl3b4Q2i0LBHFZ624IeILv3XuzDRmX8PflwmXnzRv54eNJ3RHT1P9W7HhuEb5PPYdfDzpXvNW1p4bGYMYIbqxF5MluFYXeMFNI3oVFITkiJ78cB88W4ODZQhw8W4gL18scGt80WIluUaHoFdsYo+x8l+X99Sfx353nBHFfHwkWPt0T3aJCa7zGZxsz8dWW7Br7NQ5Q4IupPRBr40k/3Tx3T7drKSQA7vypIe80Av4Pv1ur65au/gcMR36ziEmjEhH4l69sjjEVXUHpyldQkXvMZh9p0zgETl9Rq5xcoWTpDBiz9gji8s73wH+s8N1I8h5vrzmOVXsvCOIquS9imgage1QIDl+4gYyz4uyx0L5ZIO5NiESP6FAE+clx6lIxfj14CZuPXrE5ZkSXCLwzvjNkvh6/tyFRg1Rvi8J33nkHzZrd/GAYGRkJPz8/qNVqi6WnVLdYFJI9thy7itV7L2B3pvXNC2oj1F+OMT1bYHRic7RsbP2YgA9+OYnvdggLQgD4aGI3DHFgZ9Ctx6/how2ncD7PeiHbJ64xZo/thKbBSruv2dAYjvyG0tX/uPW12QxIJJZ9VIOehGrINIeuay4vQuF7gwVx9UNvQ9Hl3uoHm0woWzML+jsKSgCQRrSFeuw78A1r41A+rmQqvIiihU/AXCJcxqzsPxl+w58TIStylfEf78LJi8Vip2FhdI/mGNOjObq2DrHavvNkHt768Siu2diwq2OLILw9rguimvCdaiJPU2+Lwry8POzevRvp6enIzrZ8is93Ct2DRaFnuVFuxPGcGwhRKxCiliEiRCVqPt/tPIsf9+XW+Xbr3aNCMbhjODpEBiImIgBbT1zD1mNXsM3KO4QAMOfhThjdo7nD9zGZzFix+zz2aPKxO/M6wgIUiG8RhI4tgvCXQeIVDt6i6OMxqMy3vrPr7YJm/ADfcPvPbdPvXY6yDe9bxHwCwhD8t402RggZMlNRmXsMFTlHYC4vhCx+OJR3jYNEIf4HW+O5Ayix8n4hACh7Pgy/+//u5ozIVTSXS/Di0oNWN8CqTohajjE9m2Nox6aICFYiv9SA/BI9LuSX4+iFGzh64QbO2XiAZU2wnxwP926Jh3u1QHhQzQ+28kv0eHvNcfxx/KrV9iA/GV4d1QH3JkTanYOjirVGrN6XgxM5RThxsQi+PhI0CVSiQ/MgJHVuik4tg+vs3p4oJ78chopKNA32s2uDIWqY6m1ReLvU1FT89NNPuHz5MgAWhe7CotAzrN2fizVpOTh8/oZFvG1kIMb0aI4JfVu5NZ+dp/LweYoGx3OL3Hpfe7x0fztMHBDl9HVMZsBHUnM/ukm3dznK7yjcbJG1H4yACR/afe2iLx9H5R0bzKj6TYIq6XmHcvRkhiMbULra+jmL8rh+8HtoLnxUQW7OilwhJ78cLyw5gKwrNT88Cw9S4rH+rfFov9bwreEHUGGZAcdzi3AipwjHc4uQX2pAmb4C5fpKlOqMSGgdgu5tQtG9TSg617KA+npLNj7dmGmzfXSP5njlgfZQK1y7Af68X09hxe4L0BsrbfbpEd0IzwyLQWJ0za8I1KRUV4Gc/DKEBSrRyF9+67OPmLKvliLjXCEyzhbi4NkCXCrU3mpbMr2XzZleatgaRFEI3Jw5fPPNN1FYWMii0E1YFIrreE4R3l9/Ehnnqn/npE24P16+vx36tg2r03wuFpTjs40a/Jph/4YILRr5oXmoH5o18oNCKoHlFjM35eSXIz07H+UG2x8A7DF1SDSevbv+/MzzGmYTbnx4L0zFljO38o5J8G0SDe0fnwuG+I9/H/IOQ2u8dGXuMRR9NVEQD5qxEr7h9WvTC13qYpSnfGK9USqH/0NvQx4/zL1JkUsUa434bsdZLNt1HqVWjrjp0ioYD3RvhrG9WoqQXfV+P3wZry0/jEqT9c8BEcEqPD0sBmN6Or46407p2QX4188nkHm5xO4xD3RvhqeHxaB5I+uvGdiSk1+ONWk52HTkisVMrkRy85rj+rRCfHP3PYjJzS/Hvux87NPk4+DZApvn7QI3d9Ve97cBbsuNvEeDKQoBICUlBYsXL2ZR6CYsCsWz5dgV/H3ZYegrTDV3/p+nhsVgRlLdfFD+ZusZfLox0+YHgyrxLYLQK6YRurdphG5RIVA5sEvnD3su4FjODaxLt3830Covj2yPx/u3dngcOU+3ZxnKf/tAEA+atgy+Ee1Q9MmDqLxu+e6ntGVXBE79psZrl//6L+j2rbSI1efdObWbP4N2xyKb7bJ2g+A35Bn4Nq1fv9sbinJ9BfZo8nG9WIf8UgNimvqjfbMgwZE5nuZYThH+seJwtUtWO7YIwpNDY2p9dMXnmzT4YlNWbVPEjBFxeGpodI399mrysSYtBxsPX66x76P9WuOVB9rXOqeaZF8txa8HL2LbiWvItnJuri0xTf3x40ye901CDaoozMvLw/PPP8+i0E1YFIrj+9Rz+PfPJ2s1dkSXCLw9rjPkUtfsDrfx8GUs2noGpy9Vv1nCsE5NMfauFugd19jpexaUGvBTWg42Hb1S4yYN8c2DMHVItEObypBrFX2ejMrLpyxiioQHoB7zJgBAf3QjylYJ34sLSP4IsnYDbV/YbELhPwfBrLf8sKR+4HUoEh90PnEPpU9fg7Kf3662j6LbKCh7P+rQu5lEzrhRZsC/15/Crwerf2jXJ64xJg9qg7tiGtl13awrpXhv3Qnsz853OseYpgGYMSIWQ+KFvw+2nbiG71PPIS3Lsfv0iWuMdyd0QbBa7nR+Vdak5eLXjItIzy6o1fhxvVvitTFWjuKhBq9BFYXAzcPuWRS6B4tC9/vwl1NYuuOszfb45kHwU/hifzW/TNo1C8TcRzrbPCTZHj+l5WD57gs1FoM9YxphRlJsnb3fcPZaGbaduIqtx68iv9SAghI9IkJUaNPEH0M6htfpRgdUM+O5gyj5ZqogHjjjB0hvK1hKvpkK47mDFn1qOlJCf2g9ytZYHkwvkSoQ8to2QKpwMnPPZszag7IfX4eprPql4/Iu90HVfxJ8m7A4JPf4OT0XH/xyCkXlxmr7DeoQjuR+raotDlfsPo9/rTsJk43PGD4SCSYOjMK9XSOhVvgi/UyB1ffr75QQFYKhHcMRGaLC2Wtl2HHyWo1jqtMtKgRfPNkTCicftm49fhVfbs6q9Y60Ca1DcHfXCIzv4959BMh7eE1RmJqain79+jl9HRaF7sOi0L2qKwg7twzGX++Ou/ULdvvJa1i5+zx2nbZ+DISfQoq5j3TCsE5N7b7/vqx8pBy+jJQjV1Csrf4XfpMgJaYPj8GYni3svj7VP2Xr5kJ/4CeLmKxNTwRM/sIiZjjxB0pXCA+ID5j4GWQxva1eu2TxMzCeSbOIKRIfhPoB6xuy1DeV18+jPGU+jKe219hX2ftRKAdOgY9fw9qRkcSRV6zD++tP2bUEs2VjNe7u0hSJ0Y0QFqhAoEqGn/bn4sCZAuyp5hijHtGheHVUB8Q0FT7cXL33Aj7flIXrJbbfu3NU28hAlOoqcLHA+k6x/dqF4bMnEmt9/Zoe+N5J6itBt6hQJLQO+d8/g6GQcddRqp7XFIWuKuZYFLoPi0L3+fi3THyz1foB6sM7NcV7yV0h9RVu0vLV5ix8lqKxed3H+0dhytBohPjJBG3lhkrszbyO1NN52HkqD9eKdHblOnFAFGaMiIWSv6AaNLNBixvvDoK50vIBgv+Db0He9X5B/+KvJgoOkpfF9UPAY8LNVSovn0LR58mCeOCURZC2alhn1RqOb4L2jy9QmVf9B0qJ3A/KgVOh6j/ZTZlRQ7cvKx9fb8mqduVKbUwbHoNnhlf/fry+woTPUzT4dtuZWt+nRSM/jO3VAmPvagl/5c0dVFfsPo93156w2n94p6b44HHHfv4UlBrw6rJD2GfHstXOLYPRK7YR7optjG5RIfDxgF1QybtU1X+u3Q+4jmg0GsTG1n4jDI3G9odfIm/12UbbBeFj/VvjbyNtv+j+1LAYtG7ij9dXWN+U5rudZ/H9rnNIbBMKf4UUaqUUhaUGnLlWarHFtT16xTbCs3e3RccW3BqfAOPJPwQFoUQZaLUgBG7OZpXe8W6hMTMVFeczBIWebv9qwXjfiHYNriAEAHn8cMjjh0O74xvo9iyDucz6B3CzoRzaTZ9Af3AdVIOehKLLvW7OlBqau2Ia4a6YRvj90GV8u+0MTtXwukFNYpsG4NXRHZDYpuZjJhRSH7xwb1vc3TUCn23UYMdJ6+fWWtO5ZTAm9G1l9fWD8X1aoVWYGtMXpguWtW46egVv/HAEbz3S2a77nLxYjFeXHap2g5745kG4NyES9yZEItTfde8tUsPmFTOFISEhCA2t/ZkyBQUFPJLCjThTWPc++T0Ti/6wXhDOSIrFU8Pse1fo1MVivL7yCDRX7N/K214D2jdBct9WLtlEhuqPkmUzYTy1zSKm6PkI1Pe/anNM0WfjUHnV8uGePH4Y/Mf9+9bX5tJ8FP57uGCs+r7/g+KucU5m7d3Mpkro93wP3Z5lgiNA7iSL6gFlv4mQxfZ1U3bU0P184CKWbD+LrFr8HhrfpxX+PrpDre/968FL+DEtBwfO2J617BnTCMl9W2NwfM07pG49fhUvLDlote3x/q3xcjUPa6vG/335YWhtHLXUt20Ykjo3xegezh/lQVTFq5aPugqLQvdgUVi3/vXzSSxLPWe1rTbHS2gNlXh95RFsPnrF6dyUMl+M6BKBsb1a1PrgY6q/zNpiFL47SBAP/MtXkEbZfu9Gf2Atyta9JYjf/m6hduuX0G790qLdRxWEoFc2QeLrFYti3EK7fRF0OxbCbKz+vSpZbN+bxWFUDzdlRg3dxsOX8fvhy/jj2NUa+3ZsEYzJg6Iw3IH336tz+HwhjucU4cTFYhgrTQhSydA6TI1+7ZqgZWPHjv74NeMSXlt+2GrbE4Pb4Pl72lptW7rjLD785ZTVNgB4+f52eHxAlEO5ENnDq5aPEtFNb646ip/251pte2Jwm1qdN6iS++LDxxOwdMdZ/Of3TBgcOOMQAHx9JBjQPgxJnSOQ1LkppL6uOdaC6h/DiS2CmG9wZLUFIQAouo+Gdue3MBXkWMR12xdCFtMblTcuQbtdeAahvMdDLAjvoBo4BYruo6HbsQi6vSts9jNqdsGo2QVFt9HwG/E8JCou/6a6NaJLBEZ0iUBBqR4bD988Wuh6iQ55xXrklxrQ2F+OTq2C0Ts2DMM6ufY4oS6tQtCllWt2w74vIRJafSXmrjkmaPtm6xkYK8x4eWS7W7GrRTrM33AaGzIuWb1esFqO9yZ04aobqnP8bUnkJZZsP2uzIJw0MMrm00d7TRxw86nryj0XsOnoFeTmW99NDQCimvije1QI+rYLQ7+2YS4735DqN8NxYVEo6zDErrGqgVNQ9tObFjHj+Qzo9v2AytyjgEm43ErZY2ztEq3nfPwbwe/eVyBPeAC67QthOPGHzb76g2thOL0DfknPQ5Ew0o1ZUkMV6q/AhL7efXzC2F4tUKIzYv6G04K273aeRca5AjQL9UOwnwxr03OhN1p/GNs2MhDvJXdFmybquk6ZiMtHyfW4fNT1yvSVuOfdrVbPeHpmeAym1bDjWm1orpSgTFeBEp0RZbpK+PhIEBWmRptwf/j6cHczcoy5vAiF7w0WxAOf/BbSFl3sukbxoidQcf6QXX2V/SbBL+l5h3JsqIynd0K7/WvBLq93kncaAf+x7wASPgQissfHv53GN1trt9PpgPZheC+5K9QKzt9Q3fKq5aPTp0936qzC1NRULFiwwIUZEbmXWuGLtpGBSLtje+qZ97XDpIF1845BrJVznohqy3BaeG6eb6MWdheEAKAa+CRKls6wDEoA3PH8yScoHKoh02qRZcMka9sfsrb9YTjyG3S7lqLisnB2AwAMRzeiuOgK/B96Gz4hzdycJZH3ef6etpBLffDFpiyHxk0aGIWZ97WruSORC3nF4z5nD693djyRJ3ioZwuEBSoAAAqZL/4xJr7OCkIiVzOc3CaIydoOdOgaspjeUPYabxGztiBBNXQGJFJu0+4oeed7EDhtOdSjZkGiCrTap+LCYZT893mYipzfmIqoIZg2PBavPFD9rqNVmgQp8c8JXVgQkig8fqYwKSnJI65jbbYxMTERM2fOtNp/8eLFSElJsYjNmTNHcN6ivf1scWS8s/cicd3dNQJDOoZjX1Y++rULAxdwkrcwG8phtDJTKGvnWFEIAH73voLK/AswanYDgODvgfKucVDYOPOQ7KPoPgbytgNRnjIf+kO/CNor886g9PsXEDBpASTq2h8XRdRQPNqvNRLbhOLfP59EupXjL4L8ZHggsTmmDY/hclESjce/U+gJNBoNZs+ebVFArVu3DitXrkR0dDTmzp1r0X/evHlIT0+3WPY6a9YsZGdnW1zD3n62ODLe2Xs5gu8UEtHt9Ic3oOzH1y1iPkHhCH7pt9pd0GxG6ZpZMBzeYBFW9v8L/IY/W9s0yQrD0d9Ruvp1wCzcCEPebiD8kz8SISsi73WpUIsdJ6/hyg0dQv3laBSgwL1dIyHhk14SSVX95xXLR8UWGxuLZcuWWRROo0aNQnR0NLKzs6HR/HmocmpqKtLT05GUlGSxbHXixIkAgKVLlzrUzxZHxjt7LyIiZ1idJXRw6agFiQT+D72NwGe+h989L0N9/6sI+utqFoR1QN7pbgROXQSJn3C7fsOp7dD+8bkIWRF5r8gQFcb3aYUX7m2LiQOicF8CC0LyDCwKXSwr6+bLxH379rWIx8bG3ioiHenn7H1ccS8iolqrMFg98kDRQbgTqaOkke2h7J0MRc9H4NukjdPXI+ukLbog4NH5kCiFm09pt30N45k0EbIiIiJXYlHohOzsbISEhFjMIFYVWNaWY4aE3HzSqtFo7O5X3b3tHe/svYiIastwcqvgDEEf/0aQtrlLpIyoNqQtOsF/7NtW27Qpn7g5GyIicjUWhbU0a9YsAMCECRMs4gUFwheI73T16lW7+9niyHhn70VEVFuGU1sFMVl752cJyf1kcf2hGjpdEK+4dALa7YtEyIiIiFyFWxzZqWqzmds5e35ifcfZR6IGrtKARieERWFeYBwu8eeDd4ociMDwbZBdPWER1m79HJeC42HyayRSYkRE7lefdvBnUWinqs1mqlQdUbFgwQKLOP2Ju48SNWyKc7uBSqNFzKQMhCGis/UDBskrlHWdgOCNsyyDJhNUR9ag9K6p4iRFREROYVFYS1UzhAsWLMC8efNunVcYGhqKwsLCaseGh4fb3c8WR8Y7e6/aqk9PT4jIcaX7/gPjHTG/znejEX82eLfYWOjKsqBNXWIRVmo2I2zwJEibdRApMSIiqi0WhU6oKqRuL7hu37jlzqKosLDw1sY09vazxZHxzt6rtiTcY5mowTIVXYVRs0sQl3dM4s+GekA5YAp06Wtg1pVYxHU7v0HAhA9FyoqIiGqLG804oWpzlqqiCwCio6MBALt2WX4YqtpxtKrd3n62ODLe2XsRETnKcGyjIObbuDWkrbuJkA25mkTpD9Ug4VJR48mtMGbuFCEjIiJyBotCOyxevBgzZswQxBcsWAAAt5aOAn8eap+SkmKx0cr8+fMt+trbr0pycjKSk5Nv9XVkvKP3IiJylv7gOkFM3mmECJlQXVH2eRy+Ya0Fce5ESkTkfSTm23YDyczMBADExcWJlpCnmjFjhuC9vOjoaMydO9dq/1mzZlkcCm+rr739kpOTAQBz5syxWOpp73hH+zqjamkYN5ohapgMxzejdOUrgnjQsz/CNyxKhIyorhgOb0Dpj68L4upRb0DRfbQIGRERkSOq6j8WheRyLAqJGraSJdNgzN5nEZO3Hwx/vmtWL5V88ySM5w5YxHyCIxE88xeRMiIiIntV1X9cPkpERC5jPJMmKAgBQJH4kAjZkDsoB04RxEw3LkG7faEI2RARUW34HD9+HFV/iIiInKHd9rUgJm0WD1lsHxGyIXeQRfeCwsr7orrtC2EuuS5CRkRE5Cif+Ph4VP0hIiKqLf2hX1BxxzJCgLOEDYFyoHAnUnOFgbOFRERegstHiYjIaWajDto/vhDEpS06ccORBsC3STSUfR4VxHVpP0B/eIMIGRERkSNYFBIRkdPKf/8IphuXBHHVwCdFyIbEoBo4FRKlvyCuP7hWhGyIiMgRLAqJiMgphpN/QL9/lSAu7zAUsrh+ImREYpCogqCysoy04mw6dLu+EyEjIiKyF4tCIiKqtcqCXJStE553KpHKoRrxgggZkZiUfSfCN6KdIF6+8SMYz2eIkBEREdmDRSEREdVa+c9zYS4vEsRVI16Eb0gzETIisfnZeBhQ9tNsVOafd3M2RERkDxaFRERUK+W/fwjjmf2CuLz9YCjvGidCRuQJZG16Qtk7WRA3FeSidOWrqCy8KEJWRERUHRaFRETkMP2h9dDt/l4Q9wlpBvWoN0TIiDyJ3z0vQ9oqQRCvvHIaJYumwnDiDxGyIiIiW1gUEhGRQypyjqJszWyrbepRb0DiF+TmjMgTqR+cA4k6VBA3FV9F6YqXUfLf52HMTBUhMyIiuhOLQiIisptZW4yyn6zPBKrveRmyNj3cnBF5Kt+Q5gh45F2rx1QAgDFzJ0r++xyKv5oI3Z7vYSq+6uYMiYioisRsNpurvsjMzAQAxMXFiZYQeT+JRAIAuO1bi4jqiZJlL8J4arsgrkh4AOoxb4qQEXm6iovHUbribzAVXamxryy6FxRd74e8y71uyIyIiKrqP84UEhGRXco3zrdaEEpbdIJ6tPXlpETSZvEIfGoJ5B2G1tjXmL0XpT++jqJPx0K/f7UbsiMiIoBFIRER2cFwYgt0u5YK4hJlANRj5gD/WyFAZI1PQBj8x78P9ag3II0UnmN4p8prZ1C2/p+48eG90Kf/6IYMiYgaNi4fJZfj8lGi+sVUch3Fn0+AqTRf0OafPA/ydoNEyIq8meHkVujTVsGYvdeu/r6RHaAaNJXfa0RELlZV/0lFzoOIiDxc+e8fWC0I/ZKe54d0qhV5+8GQtx+MyqsaGI5vhuH4FlTmnbHZv/LSCZQumwlZ2/5QDZwKafNObsyWiKj+40whuRxnConqD/2R31G2+jVBXN5hKPzHvy9CRlRfVZw7AN2+lTAc31xjX0XCA1AOmALfRi3ckBkRUf3FjWaIiKhaZqMe2k2fCOI+AY3hd/+rImRE9Zm0dXf4j/s3gqYtr3H3UX3GzyheMA76g+vclB0RUf3GopCIiKzS7Vho9RgBvxEvwse/kQgZUUPgG9EW/g+9jYC/fAVpm542+5mNOpStnYPSn2bDbNS6MUMiovqHRSEREQmYiq9Cu+NbQVwePxzyzveIkBE1NLKoRARO/gLqsf+Eb5Nom/0MGetR/Nl4VOQec2N2RET1C4tCIiIS0O74FjCbBHG/pOdEyIYaMkXnuxH011VQ3/cKJOpQq30qC3JQsmQajNn73JwdEVH9wKKQiIgsVBbkQJ/2gyCu7DcJPiHNRMiICFDcNR7Bz6+FovsYq+1mfRlKvvsrKs4fcnNmRETej0UhERFZ0O9dIYhJFGqoBjwhQjZEf5Io/aEeNQvqB9+CROkv7GCqROmqV2EqyHF/ckREXoxFIRER3WIquQ7d3uWCuLLfJEiUASJkRCSk6Ho/1MkfwTeinaDNVHwNpT/OEiErIiLvxaKQiIhu0e+zMksoV0HZa4II2RDZJm/dHQGTFkDaorOgrSLnCLRbFoiQFRGRd2JRSEREN5kqodu/WhBW3DUeEoVahISIqufjFwz/R96Db2hzQZt2+0IYz+4XISsiIu/DopCIiAAA+vQfYdYWC+IqzhKSB/MJagr1Q+9YbdP+8YWbsyEi8k4sComICACgS1sliCkSH4QkoLEI2RDZT9qiE1RDZwjiFeczoM9YL0JGRETehUUhERHBeHIrKq9lC+LKHmNFyIbIcaqBUyBt0UUQ125fKEI2RETehUUhERFBl/6jICaL6291d0ciT6UcNFUQMxXkWN1Rl4iI/sSikIiogau4eBxGzW5BXNnjIRGyIao9eWxfyOOHCeJ6FoVERNViUUhE1MDprcwS+jZtC1nbASJkQ+QcZf8nBLHKglyr3+dERHQTi0IiogbMVHwV+gNrBXHOEpK3klpbZMcAACAASURBVEa2g7xjkiCu2/29CNkQEXkHFoVERA2YtR1HJeoQKFgUkhdT9nlUEKu8fg76jJ9FyIaIyPP5HD9+HFV/iIioATFVwLBfuKTu5o6jEvfnQ+Qi0uadIG8/WBDnbCERkXU+8fHxqPpDREQNhy5tFUzaIkFcwWMoqB5Q9E4WxCqvaqA/vEGEbIiIPBuXjxIRNVC6PcsEMUXig/AJCBMhGyLXkrXuDllcP0Fcv2+FCNkQEXk2FoVERA2Qfv9qmAovCuLKng+LkA1R3VBamS2syD0Gw4k/RMiGiMhzsSgkImqAtFberZJ3TIJv07YiZENUN2TRvSBr01MQ52H2RESWWBQSETUwuj3LYMo/L4grewt3bCTydspeEwSxinMHYDi9U4RsiIg8E4tCIqIGxKwvh3b714K4vMMQSFt0EiEjorolazcQ0hadBXH9rqUiZENE5JlYFBIRNSDa7V/DXC7ccVTZ53ERsiFyD2vvFhrPHeC7hURE/8OikIiogTBmpkKXukQQV3QfA2nLLiJkROQe8o5JVmcLdTsXi5ANEZHnYVFIRNQAmEquo+zXfwkbfHygGvSk+xMicjNlv0mCWMXFY1aPZiEiamhYFBIR1XOVV7NQsmSa1SMo/Ib+FT5BTUXIisi95O0HQxaVKIhr//gcprJCETIiIvIcUrETICIi55m1Rai8fgGmwlyYjVqY9VqYdSWovHwKhtM7rI6Rte0PZf/Jbs6USDyqIdNgXDTFImbWl6F8/T/hP/59kbIiIhIfi0IiIi9mOLYJhiO/wXBqm0PjJKpA+N33ah1lReSZpK0SoOgxFvr9qy3ihhNboN2+CKqBU2yMJCKq31gUEhF5IbOuFGXr34Hh6EaHx/oEhMF/wgfwDY6og8yIPJtqyDQYTmyB+Y4lo9otn8Fs1MFv2AyRMiMiEg+LQjulpqZiwYIFFrHExETMnDnTav/FixcjJSXFIjZnzhzExsbWqp8tjox39l5E5Bkqr2WhdNlMVBbkOjzWt3Fr+I9/H75NousgMyLP56MOgfqB11G6/CVBm27HIlScPwhln8cgbz9YhOyIiMQhMZvN5qovMjMzAQBxcXGiJeSJNBoNZs+ebVFArVu3DitXrkR0dDTmzp1r0X/evHlIT0/H9OnT0a9fPwDArFmzkJ2dbXENe/vZ4sh4Z+/lCIlEAgC47VuLiFzEXH4Dxd88icpr2Q6N8wmOgLLvRCjvGldHmRF5F+3WL6Hd+qXNdolCDWmzePg0bg1p41bwadQSvuGx8Als4sYsiYjqVlX9x91H7RAbG4tly5ZZFE6jRo1CdHQ0srOzodFobsVTU1ORnp6OpKSkW8UXAEycOBEAsHTpUof62eLIeGfvRUSeo+SHV20WhL5NoiHvMASK7mOg7J0M1eCnoX7gdQTNWIngmb+yICS6jWrw01D2ftRmu1lfBuOZNOjTfkDZhvdR8t2zuPHB3Sj65EFoN3+GyoIcN2ZLRFS3uHzUCSEhIQCAq1ev3ioYs7KyAAB9+/a16BsbG3uriHSkny2OjHf2XkTkGbRbPkPFmTRB3Me/EfweeB3ydgNFyIrIe/nd8xIkfkHQbllQc+f/qbx+Dtodi6DdsQjyLvdC1XcifJtyhRUReTfOFLpAeHj4rX+vKrCsLcesKiI1Go3d/WxxZLyz9yIi8Rmz90K7fZEgLvELQsCkz1kQEtWSauBUBDzxNaStEhweazi8AUULxqPspzcdXtJNRORJWBQ6IT09HSEhIRbFVkFBQY3jrl69anc/WxwZ7+y9iEh85b/Psxr3f/g9+IbHuDkbovpF1ro7AqcsQsBjn0De5T5IVEEOjddn/IyiTx9G+W8fCHY1JSLyBlw+Wkvz5t38gJaUlCRyJp6Ls49ErqE8thbqq1mCeHnCeOSbQgH+XSNyDUk40Hki0HkifIsvwfdGDnyLL9/8cyMH0vzqZwN1e5ZBt/9HlHccA22nMW5KmojEUp928GdRWAvr1q1Deno6oqOjMWrUKLHT8VjcfZTIeT5l+fA7vEoQN0Z2QXn8aIB/z4jqREVABCoCLM/ylOhLoMzaCtXpjfApz7cxUA+/Qysgu5iBsh6TUBHaxg3ZEhE5h0Whg1JTU7Fy5UqEhIQIjqIAgNDQUBQWVr90JDw83O5+tjgy3tl71VZ9enpCJJaytd/DYKoQxBuNfBlNIvl3jMjtOnYD8BJ0u7+Dftd3MJVaLw5leacRvOE1KIc9C1X/ye7NkYjIQSwKHaDRaG4dYP/ZZ59Z7XP7xi13FkWFhYW33kG0t58tjox39l61VXVeIRHVTsWZfTBkrBfElb2TIW0WL0JGRFRF1XcilL0fhW7nt9DtWASzUW+1n27zf2C6cgr+j/zLzRkSEdmPG804YPbs2QCAOXPm2OwTHR0NANi1a5dFvGrH0ap2e/s5ex9X3IuIxFG+5XNBzEcdCtWQaSJkQ0R3kvj4QjVwKoJe/AWKXhNs9jMc24SSJdMBQ7kbsyMish+LQjvNmDEDADB9+vRqZ9WqDrVPSUmx2Ghl/vz5AICZM2c61K9KcnIykpOTb/V1ZLyj9yIi8enTf0RFzhFBXDXkGUgUahEyIiJbfPwbQX3v3xA49Vubs/jG7L0oXvwMTMXc7ZuIPI/EfNtuIJmZmQCAuDgewnq7devWYeXKlTbbQ0JCBMtJZ82aZXEofHR0tNV3EO3tl5ycDODmLOXtRam94x3t64yqZaPcaIaolioMuPHRSJhK8izCslYJCJgiPKuQiDyLdtN/oN35rdU238atETBlIXzUoW7OiohIqKr+Y1FILseikMg52i2fWT2oPmDyl5C16SFCRkTkKMPR31G66jWrbbLYPgh4/FM3Z0REJFRV/3H5KBGRBzEV5FgtCBVd7mNBSORF5J3uRsBjn0AiUwjajJrdKP+VG88QkedgUUhE5EHKt35lNa4c9KSbMyEiZ8ni+iFg8hfw8W8kaNPtWwnDiS0iZEVEJMSikIjIQxjP7Ifh8K+CuGrAFPg2ailCRkTkLGmLLlA/+JbVNu3vH8KsK3VzRkREQiwKiYg8hHbzfwQxn4DGnCUk8nKymN5Q3/+qIF554wrKN30sQkZERJZYFBIReQBt6hJU5B4TxFWDnoJEKhchIyJyJUXPRyDvMEQQ1+//ERXn0kXIiIjoTywKiYhEVnH5NLQpwtkCaasEKHqMFSEjIqoLfve8bPWc0fItC0TIhojoTz7Hjx9H1R8iInI/W7sQ+g1/1s2ZEFFd8glqCr9hMwTxivOHoN/3gwgZERHd5BMfH4+qP0RE5F7lv3+IiguHBHFl70chbdlVhIyIqC4p7hoPacsugnj5lgUwlxeJkBEREZePEhGJRp++Brrd3wvivk3bwu+el0TIiIjcQTVkmiBm1hVzGSkRiYZFIRGRCCrOHUTZz29bbbO2SyER1R+yNj2h6D5GENfvX8VNZ4hIFCwKiYjczFRWgNKfZltt87t7ptWlZURUv6iGTodE7ieIl2/6VIRsiKihY1FIRORmZWvegKnwoiCu6P4glH0eEyEjInI3H/9GUA2dLohX5ByBbvd/RciIiBoyFoVERG5U+tNsGDW7BXFZ625Qj3pdhIyISCzK3smQtkoQxMs3fwpT0VURMiKihkoqdgJERJ5IfywFhiO/oTLvHCRSGSQyJeSd7oai8z2QqENqdU3t5k9hyFgviPuoQ6EeM8fZlInIC/kNnYHib6ZaBisMKN/8H/g/ZP29Y3czFV+DITMVRs0umEvyYK4wAJVGoNII3/A4SGP7QNFxOCTKALFTJaJakpjNZnPVF5mZmQCAuLg40RIi7yeRSAAAt31rEXkNY9YelP/yHioLcmz2UQ16Cqohzzh0Xd3e5Sjf8L7VtoDHPoEsrp9D1yOi+qN8w7+h27tCEFc/OAeKriNFyAgwVxigP/ATDEd+R0XO4Rr7SxRqKPtNgmrg1Br7EpHnqKr/WBSSy7EoJG+l/eMLaLd9ZVdf3/AYqO9/DdJWNZ8lqNu1FOUb51ttU4+aZXUXQiJqOMz6MhR9MgamkusWcYlMicBpy+DbuLXbcqm8mgX9wbXQHVgLGModHi+NaAe/+1+FtEXnOsiOiFytqv7jO4VERAC0WxbYXRACNz84FS96osYNIcpTPrFZEKqGTmdBSESQKNRQDfurIG426lD24yyYdaV1m8D/ZgWLv30KRZ89At2eZbUqCAGg4vIpFH89Gbo9wjNYichzcaaQXI4zheRttFsWQLt9Ya3Hy+OHw++emfAJDL8VM+vLUP77POgP/GR1jKLnIzyPkIgslK6ZDcMh4XvH0jY94f/gHIufMa5QcTYd+iMboD+8AagwuPTawM2fjerRb0CiULv82kTkGlw+SnWGRSF5k+oKQnlcfygHPAFIfKBN+QTG8wdsX0gqh2rAE5DF9IbxbDr0e1fAVJJntasiYSQ3liEioQo9ij7///buP7yt6s73/ce/7aRA5ZCE8CMUFIdMTIAwDqXFQMuAU2BSl0KbRlM4bmd6ZrAvvdTn3kvPPLghk+GBnhl023JieubOgCflcapzCkVNaRtlOtCJoDTWkKQQThNFtISmIbixoJDESez4/uFZin5sSVu/LMv7/XqePGBp772WpLXX3t/1a6/R+PBvUt6qmnWWZv/pf1X9pR0FJTFx/IiOh57W8R1+jb/9uu39ahYsUf3idtUtvlbVZ8xRVW2Dxt85qBOv/GSyZzHdfmdfqFmdX1OdxSqrxXTqD29rbP9OnXr3LU0cP6qasy9UdfMFqj3/0pKmO3ZgtybGTqi6rkFVTWep2nVeUY9/6siITr72U5147TmND78ujZ3QxPgJaXxMVWfOV935l6r2vFZVn/tHJf+OMTMRFKJkCAph18l9P9eJVwOaOPYHTZw4+h//RlVz9odUc/aFk/89Z7Fq5i8qSfpH//XbGk0zZLTxui9qVtJwrvG39ujIs1/X2Bs7806z8Zo7NWvlV/LeH8DMdnL/Lr2/sVsTJ45Zvt/w4dVq/OPbVHNObvdq44fCOv6yX6ND37PdK1hVW6/6Kz+lxj/+lGoWLEm73dhbYR394UMa25++bpy96r+qYcVncsqzHSdeDejEL3+iE7963vL9uiXXq+m6L6r2/GXFTfe1n+r40FM6GXkp4fX6JR9Tw/JVqvujjxecxmhwo44+923p5Kit7as/MEd1/xG41y26WlX1swrOA2Y+gkKUDEEhMhk/tE8nXtmiE69s0Xj0t7b2qf7AHNUuvEK1H1qu2vMuVe15l0rVhU2JPvazf9Kxn26wfK/pui9azu8xjv7Em9fDpZtuukdN134h5/0AOMvJfT/Xext7Mm5Td/EK1S9bqZp5i1Qzz50yRHPi1LhOHd6vk+EXdeLVLRr77au20689r1X1l9+shuWdOQ39PLrl/9XoC99J+3790j9R043/h2rOvtD2Ma1MjL6v0ZcGNfrSdzVx9B1b+xSz/j2y+SEdH/pfGbepv/wWzf7Ef8nrEUbjw6/riP9vMwbZdtReuFx1F61Q/eU3q2ZOYd85Zi6CQpQMQSEsnRrX0X/ZoNHgQOHHqq5W7XmXqu7iFaq96CrVXbwip90zrQbaeO0XNOume7Ie48TurTr67H/TqfcPZ0+wrlGzb/m/WVQGgG0nwy/qyLMP69SIvcazqtnNqqprVFVdoyYmJgNC5XAdrmo6Sw2X36z6y24paMjlid1bdeSZv9HE8SNpt2m47GbVuj+suos/rOqz7M+THI8e0PF///7kcFWbvWfxGq/9ombdlL7Bz473v/t/6cRr/2pr2+oz52n2betU5/6w7eOf+OWPdeQHf5u2pzgv1TWa/YmvqOFqT/GOiRmDoBAlQ1CIZCd++WMd/ZcNOvXO70py/Kq6BtW1XKP61htV33qjVF2bdttjz/0PHXvuf1i+13htl2bd9GXb6U4cP6pj//pYxlX26i+/VbNuukfVZ86zfVwAkCbn/x159us6sfOHJUujbnG76i+7WQ2X3Vy0Y47//g0d8a+zNdS+Zp5bNc3nq7r5fFWftUAaP6mJU2PSqXFpfEwT42M6+evtqqpr0thvMszrtqnphrvV9LEv5bXvkae/puN5/Bazbr1PjR9enXW7Y4Fv6ljwn/PJWla1Cy/XmX/xREmOjcpGUIiSISiEcWrkTR3Z8g2d/N/PTVmaVXUNqlvycdVecJnqFl6u6vkt0sQpHd/5Q50Mv5A2L40f/bxmfaI3rzQn3j+s46/9VCd/9TNV1TZItfWqmb9I9ZffopoPnlvIxwEAHf/3p3XkR3+fV++Ypdp6Nbbdroa2T6tmnrs4x7Rw9IcPa3T7/yzZ8ZPVzHP/x1y62Tr5+va0wy9nf+oBNVz5yZyOfexf/ruO/dvjlu9VnzFX1R+Yo7GDv0q7f+OKOzRr1V9bvjf+9j4d2fyQxt7YkX7/qz2qv7JTNWdfqKqaWk2Mn9T4gdc0dmC3Tu7fqZN7gtJ4+rmiVY0fkOuv/y3t+3AugkKUDEEhJGn0xScnh2hOnMqwVZXqL/uEas6+UHUXrVBVfZMmTh7X+OE3ND78a42/tVdjb7ysiZPHS5rXxqs/p1m3/D8lTQMACjJ2Qsd3bNbxnZs19uYv8zpE7cIrVH/pTWq4snPKFiE5sXurjgW+pfHogZKl0XBlpxouv1W1F7UlvH408A2NBjda7nPmXzyu2oVX2Dr+8Z0/1JGnv2b53uxVf62GFXdMbrfrRzr6k0c0cSRquW3dhcvV9LG/UK37I6ePHXpaR3740GTPqIWaeW7N7uxT7QWXZc7kqXGd3LtNJ/YGNfbrkMYP70/MZ2cfUxhgiaAQJUNQ6GyT8z02afztfRm3a/qTbjV++HOqavxA1mOO7d+pk/t3afy3r2rswKs69e6hYmVXDSvu0Ow0rbcAMB2NvfmKTkZe0vjb+zR+KDL5qAIL1c3nq6Z5oWrOv1QNyzpUM/fiKc7ppImx4zr+C59Gf+HTqXcOFu24DVevUdNHPBkfA3Hspxt07Gf/lPJ6zdkX6swv/bOqms7MmMb4W3v07rfvlE6Npbz3gU+vU/0VqxJeO/WHQ3r/6bUae3172mM2rrhDVbPO0snwCxr7XfrexfrLbtEHPtUn1TZkzKNlvkfe1NivQzp19B3Vnrs0p3mNcBaCQpQMQaGznHr3kMbe3KWxN3+pk3v+TeNZFkWov/QmzfqTHlXPWZh/mu8c1MlfD+lkZLtOvv4LTdhZ7MVC0w1/paaP/ee88wEA08HE+Elp9D1NnBzVxIlRqUqqaV4o1aSfX10uJ18f0snXf6GxyC80dmB3zvvXzHOrftkn1HDlJ1V9xlxb+xz5/lod37E55fX6JR/TBzze9DuOj+kP/99dloFb05/0qOn6P0+f5rNf1/Ff+Gzlz8qslfeq8Zq78t4fsIugECVDUDhznHr3LY3//jcaH/7N5IPYj72rU0eiOnUkqon3hjX+3rDt511Vu87TrI4vq771pqLn82TkJZ3Y/S868dpPNXH03azb1yxYoqbrvji5KA0AoCwmjv1B4yNvanzkt5OrrB5/XxPVNaqqrpWqa6TqGlXVTP5/9ZnzVbNgiWqaz88rrT/84xct5xg2XnOXZq2813KfI0/dr+O7fpTyesMVf6rZn/6brGmOhp7W0R/8bU75rDlnsWb/6VdtD20FCkVQiJIhKKxcp959a/KZVuEXNPbrIU2Mvl+U4zZe7dGsji9LtfVFOV4mY/t3TvZavvlLjb/5iiZG/6CJ8THVuM5XzTmLVb/0BtUvW1nyfAAApo/xw2/ovX/4Tzp17A8p7836xFfU+NE7E147uvVRjW5LXa2z5pxLdOZfblRVTZ2tdMd++4qOfH9d2iG+8Rqv+oxm/elXJVXZOjZQDASFKBmCwsoy9uYvdTL84uTchjyG8mRS/0cfV8PVn1PdRbk9RxAAgGI78b+f0/ub/ovle/GPjTj2b/+kY/+yIXWj6lqd+Z83qvbcJbklPHFKoy9s1LHgP1uOZqm/5Fo1fPhzqlv0EYudgdIiKETJEBROf2MHduvEK1t04pUtk8NCi6zhilvV+OHPqea81qIfGwCAfI0G/1lHA9+0fK/adb40MaZT77xl+f7s2/9WDZffknfaE2PHNf7b3Ro7FNap94ZVu+AS1cxfrJqzL8z7mEChTPw3/WYgAyiJU+++peP/EQiOZ3iWUq6qGmarZv6iyecCXnC5ai64TNVnnF204wMAUCyN7f9J4+++ZbkIzKlo+oXSmm64u6CAUJKqahtU+6ErVfuhKws6DlAKBIXADHfilz/W8V/+RCf3bst536rGD6jm7A+p+uyLVDPnAlXP+qCqms5S9WyXqs44W9VnzFVVw+wS5BoAgNKYfet90snjOv7yM7a2b7zmTjV97EslzhVQXgSFwAx06p3f6fjLfh1/2a9Tf3g7p31rz/0j1S76qOoXX8PqZwCAGWn2p76mqqYzNPrCdzJu1/Txv1TTx/9yinIFlA9BITCDnNz3oo6/7NeJV7fmtF/9kutjgWD1B88tUe4AAJg+Zq38imrPX6ZjW7+V8ozdmrkf0qyb/k/VLbm+TLkDphZBIVDpxk5oNPSUjoee1vjbEdu71X3oj1W/bKXql61UVeMZJcwgAADTU33rjapvvVHjw7/W2K+HpKoq1V78YdXMWVjurAFTiqAQqFDjh9/UiX9/WqND39PE8SO29qmZc2EsEKyZe1GJcwgAQGWomXsR10U4GkEhUGHGfhPS6NBTOvHKFtv7NFx+i+qXf1J1F19VwpwBAACgEhEUApVifEzvPXmPTkZ+YWvzatd5aryyUw1XdqrqjLklzhwAAAAqFUEhUCHeG7zXVkBY13KNGq7sVH3rjVOQKwAAAFS62t27d8f+qKurK2NWAGRyKvq79G9WVatxxe2q/+NPq3bBJVOXKQAAAFS82tbW1tgfe/fuLWNWAGRSfdZ8jf/+N4mvfXCBGto+rca2O1Q166wy5QwAAACVjOGjQIU44/OP6r3Be3Uq+jtVzfqgGlbcrobLby13tgAAAFDhCAqBSlFTqzPu/O/lzgUAAABmmOpyZwAAAAAAUD4EhQAAAADgYASFAAAAAOBgBIUAAAAA4GAsNJOHnp4eRaNRrVu3Ti0tLZbbDAwMKBAIJLxmtb3d7dLJZf9C0wIAAAAw89BTmINgMCiPx6NoNJpxO6/Xq0AgoO7ubg0ODmpwcFBut1tr165VOBzOebtC0ylGWgAAAABmJoJCm7xer/r7++V2u9XW1pZ2u2AwqFAopI6ODrW3t8dev+uuuyRJGzduzGm7QtMpRloAAAAAZi6CQpui0ag6Ojq0fv36jNvt27dPknTNNdckvN7S0iK3261IJJLTdoWmU4y0AAAAAMxcBIU2rV+/Xl1dXVm3MwGW1Tw9l8slSQqHw7a3KzSdXLcFAAAA4CwEhUU2MjKSdZtDhw7Z3q7QdHLdFgAAAICzsPooSobeRwAAAMxUM2kFf4JClMzExES5swAAAAAgC4LCImtubs76yIr58+fb3q7QdHLdtphmUusJAAAAMFMRFBZZ/MItyUFRNBqVy+VSS0uL7e0KTSfXbYupqqqq6McEAAAAUFwsNFNkbrdbkvTCCy8kvG5WHDXv292u0HSKkRYAAACAmYugsMg6OzvldrsVCAQSFlr5xje+IUnq7e3NaTvD4/HI4/HEts1l/1zTAgAAAOAcVRNxq4Hs3btXkrR48eKyZWi66uvrS/uQd5fLpQ0bNmTc3u12Wz743u52Ho9HkrRu3bqEoZ52989120KYYaMsNAMAAABMXyb+IyhE0REUAgAAANOfif8YPgoAAAAADkZQCAAAAAAORlAIAAAAAA5GUAgAAAAADkZQCAAAAAAORlAIAAAAAA5GUAgAAAAADkZQCAAAAAAORlAIAAAAAA5GUAgAAAAADkZQCAAAAAAORlAIAAAAAA5Wu3v37tgfdXV1ZcwKAAAAAGCq1ba2tsb+2Lt3bxmzAgAAAACYagwfBQAAAAAHIygEAAAAAAcjKAQAAAAAByMoBAAAAAAHIygEAAAAAAcjKAQAAAAAByMoBAAAAAAHIygEAAAAAAcjKAQAAAAAByMoBAAAAAAHIygEAAAAAAcjKAQAAAAAByMoBAAAAAAHIygEAAAAAAcjKAQAAAAAByMoBAAAAAAHIygEAAAAAAcjKAQAAAAAByMoBAAAAAAHIygEAAAAAAcjKAQAAAAAByMoBAAAAAAHIygEAAAAAAcjKAQAAAAAByMoBAAAAAAHIygEAAAAAAcjKAQAAAAAByMoBAAAAAAHIygEAAAAAAcjKAQAAAAAByMoBAAAAAAHIygEAAAAAAer3b17d+yPurq6MmYFAAAAADDValtbW2N/7N27t4xZAQAAAABMtdpyZ8DpgsGg+vv7E15bvXq1Ojs7i75/oWkBAAAAmHkICsvI7/fL5/Opo6NDXV1dkqSBgQH5fD5Jyhqs5bJ/oWkBAAAAmJlYaKaMfD6f3G53LEiTpK6uLrlcrliwVqz9C00LAAAAwMxEUFgmwWBQktTW1pby3ooVKxK2KXT/QtMCAAAAMHMRFJbJvn37JElz5sxJec/lckmSDh8+XJT9C00LAAAAwMxFUFgmIyMjWbeJRqNF2b/QtAAAAADMXCw0g5KpqqoqdxYAAACAkpiYmCh3FoqGnkIU3Uw6QQAAAICZjp7CMmlubs66jZnvV+j+haaVDwJDAAAAoDLQU1gmmRZ4MfP7li5dWpT9C00LAAAAwMxFUFgmJggLhUIp7w0NDcnlcqmlpaUo+xeaFgAAAICZi6CwTFpaWtTR0aFIJCK/3x973ev1KhqNas2aNQnb9/X1yePxxLbNZf9c0wIAAADgHMwpLKOuri5Jks/nk8/ni70+ODhY9P0LTQsAAADAzFQ1EbciyN69eyVJixcvLluGAAAAAAClZ+I/ho8CAAAAgIMRFAIAAACAgxEUAgAAAICDERQCAAAAoDpLnAAAIABJREFUgIMRFAIAAACAgxEUAgAAAICDERQCAAAAgIMRFAIAAACAgxEUAgAAAICDERQCAAAAgIMRFAIAAACAgxEUAgAAAICDERQCAAAAgIMRFAIAAACAg9WWOwMor2AwqP7+/oTX2tra1Nvba3u/jo4OdXV12U5zYGBAgUAgY5pW26xbt04tLS2205kO+vr6FIlEEl6z8zni9xscHLSVVjgc1tq1axNec7vdWr9+fcq2Ho8n4W87v/l0k0vZ7enpUTQatTyO3e/Xbpl0Wtn1+/3y+XyWx7BbN+RynlB2T7Nbdq3StfptKLun5XpdSy6XVmlSdk+zW3a9Xq9CoVDCa93d3Wpvb094baaUXavvLNN3ZXXdz7ZPpn2tyr3d7aY7q/M92+ewKn92PnsuaVmlkWvdXjQTcfbs2TOxZ8+eCTjD3r17J9asWTOxd+/e2GvPPPPMxJo1aybuv//+jPt2d3dPrFmzZmLNmjUTTzzxhO00zX7xaSZ75JFHJtasWTOxbdu22Gv3339/1v2mm0ceeWTikUceSXjNfP74z5bM/Abmnx3btm2bWLNmTUJ65vft7u5OeS3+97Xad7rLtezaKdOZ2C2TTiy7TzzxRNYyXYy0KLuFy1RvU3bzY367TGWQspufTHXsM888k/JapZfd+++/P+W8NOer1ecw5TeXezDDqvyZ3zL+eHa3m+7M54hnvr9052Au92D5pmVVTk19NZVM/MfwUQdraWnR4OBgQktaZ2en3G63IpGIwuGw5X5+v1/RaFSrV6/OKT2v16toNJqx9S4YDCoUCqmjoyOhJfCuu+6SJG3cuDGnNMupt7c3pfV0zZo1kqTt27en3S8QCKitrU1ut9t2WuZ48em1tLSoo6ND0WhUwWBQ0unvL773sL29XW1tbQqFQrHtprt8y24+7JZJym5p06LsFiZTvU3ZzU84HJbP58va40fZzV04HFYkElFHR0dCeuZ7Nj0rM6nsrl+/PqUnyZyvL7zwQsLrwWBQgUAg7x67TZs2yeVyJZRb81sGAoHYb2l3u+muvb09pfetq6tLLpcrpZdOmhxtIOXXY2c3Lb/fr0gkotWrVyeUcVNfeb3enNMuFEEhUrhcLknSoUOHLN83F8E5c+bkdNxQKKS2traMwzn27dsnSbrmmmsSXm9paYldeCrZ/PnzJSntkJqBgQFFo1GtWrUqp+Oa42WroCORiNra2lJev+qqqySd/v4rVbaymw+7ZdLpZbfUaVF2C5Op3qbs5sfcqGerrym7uTPHGhkZybjdTC+75nxN/h5MA0c+AWE4HFY0GtWKFStS3jPl9LXXXrO9XSVrbm6WlHjvFN8gUcq0TNns7OxM2K69vV0ul6ssZbd69+7dMv+AeOZCGs+0XOQ6D8K0hGbr/TIngVXgaC48ldIylYn5LPHC4XCs5S/XeRCmgo5vFTXHc7vdam9vj/0GpmKKZ37rbBfgSmFVdvNlt0w6ueyWOi3KbmGy1duU3fxEIhG5XK6M9TVlNz/mxji5J9WU5ZUrV0pyTtlNLj+RSCSn0UTxTCBndT6YIDQajdrebiaILz/mcy9atKikaZn6w0pzc3NZvtva1tbW2B979+6d8gxg+gmFQpYXunA4HBumkavDhw9LmqxIMk22t3NxPHToUMVNHjdMy7JVZb5582ZJ+bX8dXZ2KhKJKBQKyePxxFpIXS5XbMiS+Q0yqfQKPl3ZlSYr4Piy53K5tGHDhqzHtFsmnVx2Jam/vz9hAYrVq1entIDmmxZlN7+yK9mrtym7+ZXdkZERNTc3Z1zkhLKbf9m99957tXbtWvX392vLli2xAHD16tWxoaIzveyaHsHkACUajcrtdue1SImd8ma3oaKSGzRMY25yvRD//STfr+Y7XNcqrWg0mrWhKhwOT2nZZfVRJDCtcFY3EBs3bpTL5crrhDAnWX9/f0KFZVZo6uvrs1wlcyYxPXculyvlhsPMi8h1nma83t7e2M2JuXiaselOkKnsJl8kzWpqHo+nIleom2qZym5XV1dKneD1euXz+RSJRHIeVZAprZmqlGW3kHp7Jihl2Y1Go7Gb8/jfqaenR2vXrlV3d3fxPsg0Vcqya+Ywejye2DXN7XY7pl4w9wVmtI9hej7NPUN8OfV4PFzXbDIjq0yvs2EC3U2bNiWUYXN/NTIykvN1LV1a0w1zChHj9/tjFVBypWsmxBYaZCQHPVOxwMJ08Y1vfEOSdaC2adOmgi524XBYHo9HgUBA3d3dsYqsv78/NmF6JstUdq20tLTEbthMDy3Sy1R2rfT29srtdisUCuV8XueaVqUrZdktVr1dyUpddq0C7lItbDPdlLre9Xq9sZEvg4OD6ujoiPU8VsriPIUwvddm0ZxkVt97uoVpkGhgYCA21zf58SZGcp2RaWGaQtOaLggKIWmyRcrn8yUMN4wXPzctH5m6yOMnqVvNu0hWijk3pdbX1xdb+S/5OzSrAhbSgmRufAYHB2PHHxwcVFtbmyKRiAYGBmwtDDSV88WKJVvZTcfu4hN2y6QTy24m+Sw+kS4tym4iu2XXbr1N2U1kt+ymK3Pxvw9lN5HdsmsCzo6Ojtjxu7q6tG7dOkmnA6aZWnZ7enokTT6TMbnHL1MPYLqFaeLZKW/Nzc22t6s0fr8/Vjda9fhl+kxWC9Pkm5ad73eqe3sZPgqFw+FYBWs11t+sQBWNRi0f0BsIBBQIBDLOw7AzKXn+/PkJE8OTTwYz/rrShkR4vd7YSlZW348ZFpM8r8XweDwZ52EEg0FFo1HL1e1WrVqlUCikkZGRjIsamJuffCeul0u2slsMdsukE8vuVKVF2c3v+HbrbcpufpqbmzOuEOhyuSi7eTK9MVarippHeYTD4RlZdu00ZrhcroyBX6bAJtP9mJkDGz+H0e52lcBOY4YpU5nmA9spU9nSylR/jIyMlKVeoKcQWrt2rSTFWuCSmXH9yf/MMJCOjg4NDg5mvPCais3qBIhfwc2cBMlDH9JNCJ7uBgYGYo/iSDenp7e31/L7NZ91cHAw7wtvfEu3CVyshj6YYU5Lly7NK51yyVZ2MzErjFkF0/Hslkknlt1MzHltp4cmW1qU3UR2ym4u9TZlN5Hdsmu+l+ShjOb3cbvdlN0kduvdTOKDlJlWdu02ZrjdbkWj0ZQeK/OIjkzBminXQ0NDKe+Zctre3m57u0phtzHDnI/p7lftlCk7aZnj+P3+hNdNQz9BIaZcpiEK+TITnZMrKzMfIP4EMA+0N5PU0z0U1QyPzHVybzllG6KQj4GBAXk8noSHmra3t8fmwCRXLps2bZJ0+jlaVg9FjR+mU0ktqnbLrtfrTXkIrGnBS56TYVV27ZZJJ5ZdM5c1+Vw3Ld3xczKsym4uaVF2J+VSdu2i7J6WS9k1AaepZ81xTe+A+X0ou5NyKbtmOoUpg4aZJ2ueeTyTym4ujRnmmh7/GCrzQPv4IeNmXubAwEDC/qtXr1Y0Gk143cx9i1/7we52lcBuY0Z8b3R8g49Zn8GUTVOHWI3EsJOWmaPo8/kSXu/v7y/b4mBVExMTE+YP80iKxYsXT3lGMPXMyp/pZFs6OhgMqr+/P2WJXnOCWK1+ZbV0t9XyyX19fQmtNG63u+JWJ+3p6ck4XDbbsufmO7Ba/Sr+MR7J78Wz+g3N7xavu7u7olr8cim7ZsW7ZFbff6aya7dMOq3sWi2JblXu0pXdXNKi7E7KtezGS1dvS5RdKbeya9hZtp6yOynXsmt1w211jJlQdq0+a7zk8mL1HSd/N6aMW5VJq9/T6jewu910ZnV/FM+qvCTXD8l1Q/z3b3WfZjet5DorXT1TSib+IygEAAAAAAcy8R/DRwEAAADAwQgKAQAAAMDBCAoBAAAAwMEICgEAAADAwQgKAQAAAMDBCAoBAAAAwMEICgEAAADAwQgKAQAAAMDBCAoBAAAAwMEICgEAAADAwQgKAQAAAMDBCAoBAAAAwMEICgEAAADAwQgKAQAAAMDBCAoBAAAAwMEICgEAAADAwQgKAQAAAMDBCAoBAAAAwMFqy50BAADsCAaD+tnPfqbdu3dLklwuly699FLdcccdmjt3bsnSHRgYUCAQSHjN7XZr/fr1JUsTqTweT8pr/A4AUBz0FAIApj2v16v+/v5YQChJ0WhU27Zt03333acdO3YUJZ3HHntMwWAw4bWuri6tWrWqKMfPRyAQ0MDAQNnSny4GBwfV2tpa7mwAwIxEUAgAmNY2bdqkUCiU9v3R0VE9+eSTBacTDAa1bds2y/cuuOCCgo+fj+HhYX33u98tS9rT0fXXX1/uLADAjMTwUQDAtDU8PKytW7eqo6NDt956q+bOnatgMKjvf//7OnjwYGy7gwcPKhgMqr29Pa90wuGwHn/88WJlu2gefvhhjY6OljsbAIAZjp5CAMC09eKLL6qzs1NdXV2xeYPt7e366le/qsbGxoRt9+3bl1ca4XBY3/72t6dV8DU8PCyv15sQ+AIAUCr0FAIApq3Ozk7L1+fOnatLL700YVipy+XK+fg7duzQo48+Ou0CwocffpiAEAAwZWrjJ+3X1dWVMSsAANjX3Nyc8PfSpUtz2j/dAi79/f3q7++XNLm4SSZ+v1+BQEDRaFQul0udnZ3q6Oiw3HZ4eFjPPvusXnnllVjA19raqs9+9rNqaWmRNNlr+dBDD6UEqYFAILYCand3d8Iw2WAwqO3btysSiSgajUqaDJBXrFgRG3Kbjx07duhHP/pRbHGf1tZW3XLLLdq1a5cWLVqUMlTX6vNlWyHW7/fr1VdfVSQSiX3mBQsW6LrrrkvbIGCH3+9XKBRSJBKJHfO2227Le3gxAMx0NRs2bHhg3rx5mjdvng4fPixJmjNnTpmzBQBAZj//+c+1f/9+SZOPJrjjjjty2t/tduv222/Xzp07Y8GUNBl0feUrX9Htt98ee23//v0aGhqK/d3c3KydO3dq69atsWBmdHRUO3fu1Pz587Vw4cKEtEzv365du7RkyRL9/d//vWpra/Xcc8/ppZde0sKFC7VgwQLNmTNHnZ2deu+992IBjSR1dHRo/fr1uv322xOO7fV65ff75Xa71d3drZtvvlm7du3S8PCwIpGIdu3apZUrV+b0vZj8Pvjggzp48GDs+xgdHdXjjz+uPXv2aMWKFQn5iP988+fP1wMPPKC6ujrt2rVL+/fv165du3TllVdq9uzZse2/9rWv6aWXXtINN9yg++67TxdffLFefvllvfPOO9q9e7fefvttrVixIiFfVr/DDTfckLCN1+vV1q1b1djYqAcffFDLli3Tz372M/385z9XbW2tlixZkvP3AQAzlYn/mFMIAKhI8XMI8wl8CmECtm9+85spj6vYvn17yvZmOGhjY6PuvPNOSZNDYxcsWKDR0VH94z/+Y855ML1hknTs2DHNnTtXc+fO1bJly2LbHDx4UH6/P+djf+9734sFu5dccomkycD0nnvuSZnLKUnf+ta3Yr2D1157rebOnau2traEfOzZsyf293e+852U4bHLly/XeeedF/t727ZtCofDOeX7sccei30nt912m+bOnavly5fHgkufz5fzMQHACQgKAQAVJxwOx4KKjo6OKR8W6HK5dOedd2ru3Lkpj6uI73WUJoM3k9fzzjsvYRjlrFmzYvvkGrzFpxMKhdI+qzE5P3b87ne/i/3/ww8/HAukli9fruuuuy5hW7/fn9KrKUktLS269tprJU1+X/Pnz7fMU6bPfejQIdt5DofDCY8UiS8TTU1Nsf/fvHmz7WMCgFOw0AwAoOKYG3u3262urq4pT7+5udn2XL1XX33V1nbxgZgdl19+uYaGhhSNRuV2u7V8+XKFw2G98sorOR3HSnxv4MGDB/XQQw/ppptu0po1a1K+70yf7+6779bdd9+d8npbW5sOHDig0dHRWJAZDAZ14MCBvPOc6VmW8QpJAwBmKoJCAEBF2bFjh0KhkBYsWKAvf/nL5c5OVvG9aJFIRB6Px3K7XIPC5cuXa8OGDZIme8m8Xq8OHDigRYsWFbxy6fXXX6/4hehGR0e1efNmvfbaa7rrrrtiC+NIiZ/Prs7OzthCMsFgUH19fXK5XDrvvPPyOp4kvf766wl/p/ueWdUVAFIRFAIAKsqTTz6pBQsW6Ktf/Wra3rqBgYHYap1WklfwLKX4lUTdbrfWr19f1ONv2rRJW7duVVNTkx544AE9++yzabe1+720t7fr8OHD8vl8Ce9HIhE99NBDuueee7R8+XJJSlkpdXh42FYv6vDwsL73ve9p27Ztam1tVW9vr/r6+rLul05yPrKtHAsAOI05hQCAiuH1ehWNRvVXf/VXKYGH3+9XMBgsU87sGRkZKerxvF6vNm/erNHRUXV0dOT9+AkrnZ2d6u7uTnn+4+joqJ5++um0+6Wb2xjPrFZq5gB+9rOfLSyzFlhQBgDso6cQAFAR/H6/Dhw4oHvuuSdh+KI0OQTR7/fr61//uiSpq6urLHMNrSxYsCA2ZDEajWrHjh2xXrZCDAwMJMyjs/Ncv1y/l/b2dl1yySWxHj0jfoin2+1O+PvVV19N+6xGI361UrfbnfJ75uPcc89NyEcoFCrKcQHACegpBABMezt27Iit4vl3f/d38ng8Cf/Mw+aL2VNWLIsWLUr426qXbceOHdq0aVNOx41/Xl+xPfjggxoeHpY0+Z3efffdWr16teW2S5cuTfjbaiXU4eHh2LDVcDic97zBTNxud8LfW7dujX2G+Hw89thjRU8bACodQSEAYFobHh7Wo48+mjJnLFn8M+5ykfzcvTfffDP28PZiuPHGGxPSiEQievDBB2PDG4PBoJ588kndeOONsW0aGhoSjmFWzPR6vbH9rB59YbX66LFjx3LO8+joqP7hH/4h4TXzXEUpMQC78cYbU4aYPvroo7GhvOFwWA8//HDs8RvJj5k4cOCAduzYYbn66NGjR23nuaOjI5Y/8xkefvjhlHxcffXVto8JAE5R88ADDzxg/jBPtJ8zZ07ZMgQAgGHmnr3zzjtZt12xYoWuuOKKnNOorq5O6HXbu3evfvKTn2j58uWx473wwgvau3dvbJtoNKrLLrtMc+bMyfiedPqaGr+a5/DwsJ5//nk99dRTeuWVV/SlL30pIdA655xz9Pzzz2tsbCy2/VNPPaWmpibdcccdkqSdO3cmBIa7d+/Wnj171NbWlpCf/fv361e/+lXK8wUzee6557Rnzx69+OKLmj17thYuXKhgMKjnnntOjY2N6urqigVgs2fP1rnnnquXX345lt+xsTENDQ3pqaee0vPPP69bb701NqS0qakp4bONjY3pxRdf1MTEhObNm5ewCuvOnTt14sQJLVu2TMPDw3r66adTev8WL14c+47nzZuXkI/3338/JR8f+9jHbH8PADDTmfiPoBAAMG1t3LgxIZjKpK2tTUuWLMk5jYULF+qMM87QG2+8odHRUblcLt1000268847JU3O3fvxj3+cst/zzz+v9957L+17t99+e+zvJUuW6OKLL9a7776r9957T2NjY2psbNQVV1yhP//zP1dra2vC/iYQO3TokKLRqBobG/WRj3xEX/jCFzR79mxJkw+EN++7XC5dd911uu+++7Rs2TK9/fbb2r9/vyTp2muv1Z133hnbz47nnntO9957r2bNmqWhoSF9+9vf1tDQkFpbW/X5z38+ZU7kggULtHTpUr3//vsaGRlJ+Hx/9md/lhCIzZ49W01NTbHve8GCBbrjjjv0+c9/XosWLVI4HI595ptvvllr1qyRJH3pS19KCQhHR0f1/PPPa/78+Vq4cKEWLFigj370o/r973+vY8eOxXqXW1tb9ZnPfCbrXEcAcBoT/1VNTExMmBdNy+LixYvLkysAAAAAwJQw8R9zCgEAAADAwQgKAQAAAMDBCAoBAAAAwMEICgEAAADAwQgKAQAAAMDBCAoBAAAAwMEICgEAAADAwQgKAQAAAMDBCAoBAAAAwMEICgEAAADAwQgKAQAAAMDBCAoBAAAAwMEICgEAAADAwQgKAQAAAMDBCAoBAAAAwMEICgEAAADAwQgKAQAAAMDBCAoBAAAAwMEICgEAAADAwQgKAQAAAMDBanfv3h37o66uroxZAQAAAABMtdrW1tbYH3v37i1jVgAAAAAAU43howAAAADgYASFAAAAAOBgBIUAAAAA4GAEhQAAAADgYASFAAAAAOBgBIUAAAAA4GAEhQAAAADgYASFAAAAAOBgBIUAAAAA4GAEhQAAAADgYASFAAAAAOBgBIUAAAAA4GAEhQAAAADgYASFAAAAAOBgBIUAAAAA4GAEhQAAAADgYASFAAAAAOBgBIUAAAAA4GAEhQAAAADgYASFAAAAAOBgBIUAAAAA4GAEhQAAAADgYASFAAAAAOBgBIUAimZgYEAej0fhcLjcWQFQJsFgUB6PR36/v9xZAVAm4XBYHo9HAwMD5c4KbCIoBKaA3++Xx+OR1+std1ZKamhoSC6XSy0tLeXOCjDtmJuknp6ecmelpLZv3y5JWrp0aZlzAkxPHo9HHo+n3NkoqRdeeEGStGjRojLnBHbVljsDqCxer1ehUCjhtcHBwZLu7/f75fP5JEmrV69WZ2dnxm0Mt9ut9evX285bLqw+h5Xu7m61t7dn3GZgYECBQCDl9XXr1lkGV1aftaOjQ11dXVnzk465OKX7zsznTZcnabJ3IBqNqqOjI5bHbPnyeDwl/Z1QGlZl0E5ZL2T/cDistWvXSpLa2trU29ubcZt4udRRubD6HFbsnJ/BYFD9/f0pr6er86w+a6HnUl9fnyKRiCTr78x83nR5MkKhkNxutyR757hJt1S/E0rDqsxmKxvF2D/b9Sp+m3iZrl+FSHfuJktXb8VLV4dlqkOSP6vL5dKGDRuy5ied+Psbq+/MfN5s9ZppJG5vb5fH48maLzv3GSgtgkLYZi7c8SdsT0+PPB6PrYt5vvtnu+nq6elRNBpNqUi8Xq96enoKqhzTSa7YTWCX7sa2s7PT8kJnKnOrvK9duzal0g0Gg/L5fAnfl0l7ZGQk6wUnm0gkIr/fb/uiHs/0DlxzzTVqaWmRz+fT0NBQ2ouGGVrW1taWf4Yx5Ux5i79583q9sZsiu40gue6/cePGjMc1NxTJN5Wml74UNxrJ53W2m6WWlhbLus7UjVZ59/l8CoVCKTe/a9euTahvTNrFqvO8Xm9e9Un8ed3S0iK3261IJKJwOGz5/YfDYUUiEeqBCmPV8DcwMBC7Xme7huS7f7bRNqZ+sbp2Jp8zxdLe3p5wTBPYZQoCreoBU4dZ5b2/v19DQ0Mp53ZPT09CvWHStntfls3GjRvzamiKbySWJuuDUCikYDCY9vs3jUkEhOXD8FHY4vf7Yzct8SfsmjVrJGWvqPPd34xFX716teX7Xq/XMiCUJgO3UgSExdLX1yfJuiWut7dXbW1tCgQCCgaDsdfb29tTKvquri65XC5bPZeZmJZ9Oz0fVpIr9La2NkWj0YT8J28vZb95wPQRDocVCATU1taW8LuZG59NmzaVZP9gMBirP6z4/X7LgFCaLF+Dg4PT9kZjYGDAMiCUJvO+evVqRSKRlHk5g4ODCTdX7e3tWc85u9xud+wGLlfJ57UJ9sxQsmTm9auuuiqfrKJMfD6f3G53QvBirkV2riH57B8Oh2PnuZVgMGgZEEqnr53FDgiLxdRh6fLe3d2taDSacq+0YcOGhHqjpaUlFogVOqfXNOjkc5z4RmLp9PltXk9GI/H0QFAIW8yQouSblvb2drlcrtj7xdzf3ECaCi5ZMBhUKBSKtUjbYXoN4v8VegNlh1l4wdzYmZvcjo6OtHlftWqVJGnLli1Zj9/c3CxJBS/wYr7rXCeGW1Xo2S4CkUgkFojGM4vVmH/J86/iF7GI35bFbUrvtddek2R9A28Ckky/Q777b9q0SW63O+0cNZ/PJ5fLZbuBwczti/83VYsheDyeWIOQJAUCAbnd7rR57+zslMvlshxinszUA4cPHy4ojytXrpRkr+6JZ9XrZz7X0NCQ5T6m7k++WTfnefy/5LJh5mnHb8viNqVnrplWN/ArVqxI2KaY+2/cuDHjeW4alXKZSpFcxqZq3n9PT0/CtS0QCMjlcqXNe3t7e6yxJtu1zuVySZKi0WhBeTT1gJ26J1lyI7G510vXeG3qgeQ63qquTi4bPT096uvrS9iWxW3yQ1AIWyKRSKyiSdbc3Jy18slnf3MBSFdJ7tu3T5L9Fua+vj75fD51d3drcHBQg4OD6ujoUH9//5RXICbvmSZgt7S02Aq4k/cphGmpzfUiYBX0Z7oIpGsV7OvrUyAQiP0+plfUan5IIBCIzUOazj1BM4n5nefPn5/ynglIDh06VNT9BwYGFI1Gddddd1ke09wgmJvJbAYGBmJDs03Z6e7uViAQSAjWpoLJu1XjSDzzvt0GrDlz5hSUL9PrGIlEcmo0Sxf0p+vBTDd0dGBgQP39/Ql1dVtbm9auXZtyjEgkov7+/th2jDwoPXP9sipn5jqfqWEin/3NaCMzuihZOBxWNBq13dNkGojb2tpiZWfdunUKhUJTvhCUybvdesCcZ9mku+eya/78+ero6FA0Gs2psSVd0G/qaKtjWQ0d9fv9Wrt2rVavXp1yz5Z8jJGREa1du1br1q3T4OBgQWssOBlzCktg7I0dGn3ZrxM7flDurOSl4cpONSz/pGovXB57LRqNZq1g0s0ZyWf/bMPFpMlKQLK+wUwWP3w1vkW6q6tLkUhEgUBgSiuRTDfH8UzAnOm7NTdW2S4odnV0dMjn8+U0p8j02CZbsWKFAoFAyjxFq6Gj5jfq7u5OOMaaNWtigXv8bxSNRnXvvffm9Nmm0o5fR/X9oTflDx0od1by8qkV5+tTbedr+UWnz1s7Lc+Zbgbz2d8MN21pabFsITfb27kBih++Gl+W2tvbtW/fvthw7akaYmZujrPl3W52x+sxAAAJgklEQVQPoOmNK0b+V61apVAopE2bNtk+XigUii0sEe+qq65SKBTS9u3bE96zGjoaP0Ikftve3l55PB5t2bIl4fVoNJrxOjEtvBuU3npceuuJcuckdwu+KM3/gnTW6e/cXHszyXSu57O/6VFPVxZNY5I5V7Ixw1fjr3EtLS1avXq1fD5f3nPr82GCvGx5t9sDaK6vxVj9t6urS4FAQD6fz/b3YUYHJW9/zTXXKBAIKBQKpVz7pdQg0ufzpUw16Orq0tDQkAKBQMLrZv4ijcOFoaewBI7v+EHFBoSSdPxlv0ZfLu8QHDNcLFMllMvQiHRDE6TTFVGlDjsyC3CYoR6F6uzstD1MRTr9vVn12Jr5BPG9nel6B9INIzN/J99ITPcLwDOh31ZsQChJzwz9Vt8ferOseTBDuTI1TuRSD5ibL6sGFFNW0w13nu5Mj2q64fa5MnOT7PYSmPPaqsc23TSB+NUJDfMbWY2icLvdKfVAtuvEtHDoicoMCCXp4OOTAW0ZZRstIOU2ZDpTD70pS4XO0S8X07iay7SabEyji90RVekaieMXnkreXkoMIjP9Rm63O6XezzSqDPbV7t69O/ZHXV1dGbMycxwvc0BVDCd2/EC67YGypG0uAMXsBTI9lVaVZKFDrcrJLFLR1tZW1N6NlStXqr+/39bKY+l6B6TTQ2DjL7DphpiZSn6mPLvpmaHfljsLBfOHDuhvPntZWdI2c4aL2QtkyphV49B0bmDIxiywUewbo1x6CUyvnwmuk8UvXtPe3h4bMpccxJrfqL+/33KZ/0KHxJXFwfIGVQV76wnpkvJ8hvie42KdoyaATDd9oyLLmCa/K7NIT6Erkcfr7OxUIBBQIBBIe34bmRqJpcTFa0ydYtVIbH4jn8+X9+J3yF1ta2tr7I+9e/eWMSszR/3yT1Z0T6E0OYQ0np1KMlOFncv+8cPFMjHHPHToUMXd0NnN+8jISNpg1u/3x4bUFPMCIE227G/fvj3rCoSmdyBT70TyENJMQWShz1eaTjrbzqvonkJpcghpPDvncaZGllz237Jli63FY4q1qEI52M276R2zCmbD4XAseCrFuWOG0w0MDGT8/YaGhjIuJ588hDRbEDmjnlV2zhcqt6dQmhxCGsfOEM1MZSWX/Tdv3iwp++Ixpt6wMzR1urGbd1NPpAtmzfMN161bV8TcTTLTODZv3pxxHYdM13cpdQhptiCyFI8QQXoMHy2Bxis7U4KqSlK//JNqWP7JhNcyLSYzMjKSdT6b3f1NABIKhRJWmzItRT6fL7b6lKlEzLycbNKlb1qkprLH0HzeTHnPNPncPK/Q5XKV7MHvdlY/zXZjF/+eGY6aboiZVJk39unctuKClKCqknS2nadPtSXmP9NiMuaGJtMFPJf9I5GIotFoQj1gbnpM/TAwMJDQ2myXVfpmqLTdOUnFYII8O6s3p2scKuWNoGRv9VPzTLJMi3wkLzyVLYjMtGBRxTnniymBVcU45wuTcwrjZFpMJlNvfD77m3MjeQVK855ZMdTuSujx0g05tbMGQjHF13mZpJtiISm2OE53d3dJGlPiVz9N971lu75LiUNIzSNGMgWRha6kjNyw0EwJ1F64XLUXLtfsT60td1aKxqrLXzp9M5Bt5T+7+yc/BNYwD7pNfpbXpk2bbC0SY1bSs5o8nq1SKoX44Rjp8m7mCprgzCh1z4Bh5hSZYWlWzJygTBeh+IuAafW1CiIz/UaVaPlFLi2/yKV1n1lW7qwUzaJFixQIBFIWDJFOrx5XrP2tHryc7qHQdh6MLJ1upbZK304DR7G1tLRkzbsZTm81jLbUN4KG6SVIFxiaeZjZFrYwowbM82WtRhhk+o0q1lntk/8W/1O5c1IU5ndOXjBEsndNyGX/dNc4j8cjt9ud0CiabmGzZJ2dnfL5fJbpZ+u5KhVzrU2XdzNX0Oqc6evri9URpTxn7rrrLq1duzZtPWDq0Eyrqkunr/WbN29O+5ky/UYoHXoKYUu6h8r29/dbzmPp6elJmBuW6/52mXmHVs+wGhgYiN00mdZun8+XsJ3X67Vc5jo5/6Vg0rRKp6+vL7ZaavLFNZeegUI/h/ldrHrw7DYISKcX87FadtpI9xtJmrLnSSIz86iC5GHF5lEOyQtBeL3ehN8u1/3t6u3tlcvlslyq3DzDzqzga9KP384MxU6et5Sc/1IwwW1/f39KOgMDA7Hh9Mk3RrncCBb6OUwvQbqe/Ezndbz4UQNS6uqEktL+RtLkZ+b5Y+VnGgyTH2xugv3k66l5nqzZNtf97erq6pLb7Y4Nd45nnmFnzgGTfvx2ZgRO8hz95PyXQvw9UnI6plHc7Xan3CuZe5iOjo6swVOhn8Ocm+nqAauFo6wkL+aTriHO6jeSJj/zVD1P0mnoKYRtGzZsSAkyklvsS7m/lZaWFg0ODsrr9caCJcPtdie0Mm7YsMFyO6seialgekX7+vpSAje3222Zr/jKMflzmP2KPZzUzCmSEueNmt4BOz0rptXP5DGddL8R8wqmj97eXnm93oSFQFwul+3zqND909mwYUPs5im58Sn+2L29vZbblbOMDQ4Oxp7Nl7y4itX3Yh7ZI6VfiKHY9ZrpJZASh9qnW07eSvyogUz1QLrfqKOjgxUGpwnzOyT/RnbLXaH7p7N+/XoFg0HLnu34eapdXV1atGhRynbJo5GmUqY6zGqOrRl+KSk28ihZsefmmkfDSInzRk0jsd3Vj03DT6Ze5XS/UaH3jUivamJiYsL8YRaaWbx4cdkyhMqXbohXpaj0/Bul/hxWw3eAeKanvlIXD6r0/Bul/BxmVEO5Gtcw/VV6Gan0/Bul/Bxer1ehUGhmLRDlICb+Y/goim7z5s1yuVwVG1BVev6NUn6OXHoH4Ex+v7/oj5aZSpWef6OUnyPdM0cBw/Rqd3d3lzsrean0/Bul/hx2h5BjeiMoRFGZZ4vlOyeg3Co9/0apP4cZusYEcKTj8/mK+myxqVbp+TdK+TnSPXMUMDZt2lT05+hOpUrPv1HKz2HmadI4VPkYPgoAAAAADsTwUQAAAAAAQSEAAAAAOBlBIQAAAAA4GEEhAAAAADgYQSEAAAAAOBhBIQAAAAA4GEEhAAAAADgYQSEAAAAAOBhBIQAAAAA4GEEhAAAAADgYQSEAAAAAOBhBIQAAAAA4GEEhAAAAADgYQSEAAAAAOBhBIQAAAAA4GEEhAAAAADgYQSEAAAAAOBhBIQAAAAA4GEEhAAAAADjY/w94mCjPeXD3cQAAAABJRU5ErkJggg==;" vertex="1" parent="1">
          <mxGeometry x="310" y="40" width="480" height="358.53" as="geometry" />
        </mxCell>
        <mxCell id="gofoVs9rAWzTl6_hGibi-5" value="" style="endArrow=none;html=1;rounded=0;" edge="1" parent="1">
          <mxGeometry width="50" height="50" relative="1" as="geometry">
            <mxPoint x="562" y="289.9999999999999" as="sourcePoint" />
            <mxPoint x="562" y="50" as="targetPoint" />
            <Array as="points">
              <mxPoint x="562.4" y="210" />
            </Array>
          </mxGeometry>
        </mxCell>
        <mxCell id="gofoVs9rAWzTl6_hGibi-6" value="A(101)" style="text;html=1;strokeColor=none;fillColor=none;align=center;verticalAlign=middle;whiteSpace=wrap;rounded=0;" vertex="1" parent="1">
          <mxGeometry x="530" y="60" width="30" height="10" as="geometry" />
        </mxCell>
      </root>
    </mxGraphModel>
  </diagram>
</mxfile>
